<?xml version="1.0" encoding="UTF-8"?>
<!DOCTYPE svg PUBLIC "-//W3C//DTD SVG 1.1//EN" "http://www.w3.org/Graphics/SVG/1.1/DTD/svg11.dtd">
<svg xmlns="http://www.w3.org/2000/svg" version="1.1" width="5001px" height="2813px" style="shape-rendering:geometricPrecision; text-rendering:geometricPrecision; image-rendering:optimizeQuality; fill-rule:evenodd; clip-rule:evenodd" xmlns:xlink="http://www.w3.org/1999/xlink">
<g><path style="opacity:1" fill="#697076" d="M -0.5,-0.5 C 12.5,-0.5 25.5,-0.5 38.5,-0.5C 132.132,93.6321 225.965,187.632 320,281.5C 320.5,187.501 320.667,93.5006 320.5,-0.5C 335.5,-0.5 350.5,-0.5 365.5,-0.5C 365.333,108.834 365.5,218.167 366,327.5C 415.167,376.667 464.333,425.833 513.5,475C 635.167,475.667 756.833,475.667 878.5,475C 719.938,316.272 561.272,157.772 402.5,-0.5C 423.833,-0.5 445.167,-0.5 466.5,-0.5C 629.52,161.686 792.02,324.353 954,487.5C 954.471,489.246 955.138,490.913 956,492.5C 956.667,638.5 956.667,784.5 956,930.5C 953.696,941.072 947.196,947.239 936.5,949C 791.167,949.667 645.833,949.667 500.5,949C 497.382,947.941 494.382,946.608 491.5,945C 327.326,781.659 163.326,618.159 -0.5,454.5C -0.5,433.167 -0.5,411.833 -0.5,390.5C 160.159,550.993 320.993,711.326 482,871.5C 482.667,749.833 482.667,628.167 482,506.5C 432.528,458.028 383.361,409.194 334.5,360C 222.834,359.5 111.167,359.333 -0.5,359.5C -0.5,344.833 -0.5,330.167 -0.5,315.5C 96.169,315.833 192.836,315.5 289.5,314.5C 289.376,313.893 289.043,313.56 288.5,313.5C 192.167,217.5 95.8333,121.5 -0.5,25.5C -0.5,16.8333 -0.5,8.16667 -0.5,-0.5 Z"/></g>
<g><path style="opacity:1" fill="#2d3033" d="M 38.5,-0.5 C 132.5,-0.5 226.5,-0.5 320.5,-0.5C 320.667,93.5006 320.5,187.501 320,281.5C 225.965,187.632 132.132,93.6321 38.5,-0.5 Z"/></g>
<g><path style="opacity:1" fill="#2d3134" d="M 365.5,-0.5 C 377.833,-0.5 390.167,-0.5 402.5,-0.5C 561.272,157.772 719.938,316.272 878.5,475C 756.833,475.667 635.167,475.667 513.5,475C 464.333,425.833 415.167,376.667 366,327.5C 365.5,218.167 365.333,108.834 365.5,-0.5 Z"/></g>
<g><path style="opacity:1" fill="#2d3134" d="M 466.5,-0.5 C 1977.83,-0.5 3489.17,-0.5 5000.5,-0.5C 5000.5,544.167 5000.5,1088.83 5000.5,1633.5C 4988.91,1627.35 4976.58,1623.52 4963.5,1622C 4945.5,1621.67 4927.5,1621.33 4909.5,1621C 4903.15,1620.75 4897.15,1619.25 4891.5,1616.5C 4867.02,1604.55 4854.35,1584.89 4853.5,1557.5C 4853.67,1541.16 4853.5,1524.83 4853,1508.5C 4848.23,1479.39 4833.4,1456.89 4808.5,1441C 4802.15,1437.32 4795.49,1434.49 4788.5,1432.5C 4782.29,1430.76 4775.96,1429.59 4769.5,1429C 4751.5,1428.67 4733.5,1428.33 4715.5,1428C 4706.67,1426.54 4698.34,1423.71 4690.5,1419.5C 4673.89,1408.62 4664.05,1393.29 4661,1373.5C 4660.67,1354.5 4660.33,1335.5 4660,1316.5C 4656.11,1288.69 4642.61,1267.03 4619.5,1251.5C 4607.41,1242.52 4593.74,1237.35 4578.5,1236C 4561.5,1235.5 4544.5,1235.33 4527.5,1235.5C 4505.18,1233.68 4488.02,1223.34 4476,1204.5C 4472.34,1197.18 4469.67,1189.52 4468,1181.5C 4467.67,1162.83 4467.33,1144.17 4467,1125.5C 4464.73,1102.12 4454.89,1082.62 4437.5,1067C 4428.4,1062.7 4421.23,1064.87 4416,1073.5C 4414.63,1076.74 4414.3,1080.07 4415,1083.5C 4420.33,1090.83 4425.67,1098.17 4431,1105.5C 4434,1111.51 4436,1117.84 4437,1124.5C 4437.33,1142.17 4437.67,1159.83 4438,1177.5C 4440.71,1212.2 4457.21,1238.03 4487.5,1255C 4492.31,1257.41 4497.31,1259.24 4502.5,1260.5C 4506.82,1262.58 4511.48,1263.75 4516.5,1264C 4535.17,1264.33 4553.83,1264.67 4572.5,1265C 4581.64,1265.95 4590.31,1268.45 4598.5,1272.5C 4613.69,1281.53 4623.86,1294.53 4629,1311.5C 4630.27,1331.46 4630.94,1351.46 4631,1371.5C 4633.43,1401.37 4646.93,1424.71 4671.5,1441.5C 4683.94,1451.54 4698.28,1456.87 4714.5,1457.5C 4733,1458.33 4751.66,1458.83 4770.5,1459C 4797.61,1464.78 4815.11,1480.95 4823,1507.5C 4824.22,1528.47 4824.89,1549.47 4825,1570.5C 4825.46,1573.85 4825.96,1577.19 4826.5,1580.5C 4833.93,1608.6 4850.6,1629.27 4876.5,1642.5C 4883.77,1646.09 4891.44,1648.59 4899.5,1650C 4922.84,1650.98 4946.17,1651.98 4969.5,1653C 4981.74,1656.11 4992.07,1662.28 5000.5,1671.5C 5000.5,2051.83 5000.5,2432.17 5000.5,2812.5C 3333.5,2812.5 1666.5,2812.5 -0.5,2812.5C -0.5,2270.5 -0.5,1728.5 -0.5,1186.5C 3.35413,1187.84 7.35413,1188.67 11.5,1189C 30.8333,1189.33 50.1667,1189.67 69.5,1190C 102.437,1197.43 120.104,1217.93 122.5,1251.5C 122.333,1267.5 122.5,1283.5 123,1299.5C 126.523,1327.47 139.69,1349.47 162.5,1365.5C 174.448,1374.79 188.114,1380.29 203.5,1382C 222.833,1382.33 242.167,1382.67 261.5,1383C 266.641,1383.7 271.641,1384.87 276.5,1386.5C 298.924,1397.11 312.091,1414.78 316,1439.5C 316.689,1451.68 316.522,1463.84 315.5,1476C 315.967,1485.58 316.967,1495.08 318.5,1504.5C 325.603,1531.93 341.603,1552.26 366.5,1565.5C 375.444,1570.54 385.111,1573.7 395.5,1575C 410.496,1575.5 425.496,1575.67 440.5,1575.5C 474.981,1575.5 497.481,1591.83 508,1624.5C 509.399,1639.79 509.899,1655.12 509.5,1670.5C 508.577,1685.16 510.911,1699.16 516.5,1712.5C 521.302,1724.14 528.302,1734.31 537.5,1743C 547.99,1748.59 555.823,1746.09 561,1735.5C 561.667,1732.17 561.667,1728.83 561,1725.5C 556.333,1719.5 551.667,1713.5 547,1707.5C 543.77,1700.96 541.27,1694.29 539.5,1687.5C 538.603,1672.52 538.27,1657.52 538.5,1642.5C 538.461,1600.97 519.795,1571.14 482.5,1553C 477.572,1551.19 472.572,1549.69 467.5,1548.5C 461.889,1547.44 456.222,1546.6 450.5,1546C 433.167,1545.67 415.833,1545.33 398.5,1545C 395.832,1544.43 393.166,1543.93 390.5,1543.5C 361.839,1532.88 346.839,1512.21 345.5,1481.5C 345.667,1465.5 345.5,1449.5 345,1433.5C 340.389,1403.07 324.889,1380.07 298.5,1364.5C 286.357,1357.84 273.357,1354 259.5,1353C 241.833,1352.67 224.167,1352.33 206.5,1352C 197.643,1351.44 189.643,1348.6 182.5,1343.5C 165.199,1332.66 155.365,1317 153,1296.5C 152.832,1278.33 152.332,1260.33 151.5,1242.5C 147.753,1210.25 131.753,1186.08 103.5,1170C 92.759,1164.81 81.4257,1161.48 69.5,1160C 50.1667,1159.67 30.8333,1159.33 11.5,1159C 7.41037,1158.02 3.41037,1156.85 -0.5,1155.5C -0.5,921.833 -0.5,688.167 -0.5,454.5C 163.326,618.159 327.326,781.659 491.5,945C 494.382,946.608 497.382,947.941 500.5,949C 645.833,949.667 791.167,949.667 936.5,949C 947.196,947.239 953.696,941.072 956,930.5C 956.667,784.5 956.667,638.5 956,492.5C 955.138,490.913 954.471,489.246 954,487.5C 792.02,324.353 629.52,161.686 466.5,-0.5 Z"/></g>
<g><path style="opacity:1" fill="#dccfbc" d="M 1608.5,8.5 C 1614.36,10.8906 1616.53,15.224 1615,21.5C 1612.17,27.5022 1607.67,29.5022 1601.5,27.5C 1600.31,21.8401 1600.31,16.1735 1601.5,10.5C 1602.19,11.0253 1602.69,11.6919 1603,12.5C 1603.49,11.2068 1603.66,9.87344 1603.5,8.5C 1605.17,8.5 1606.83,8.5 1608.5,8.5 Z"/></g>
<g><path style="opacity:1" fill="#d1bea8" d="M 1377.5,8.5 C 1381.88,10.0887 1383.88,13.2554 1383.5,18C 1383.88,22.7446 1381.88,25.9113 1377.5,27.5C 1377.5,21.1667 1377.5,14.8333 1377.5,8.5 Z"/></g>
<g><path style="opacity:1" fill="#cebba4" d="M 1424.5,8.5 C 1432.5,14.8333 1432.5,21.1667 1424.5,27.5C 1424.5,21.1667 1424.5,14.8333 1424.5,8.5 Z"/></g>
<g><path style="opacity:1" fill="#baa691" d="M 1553.5,9.5 C 1553.5,15.1667 1553.5,20.8333 1553.5,26.5C 1546.83,20.8333 1546.83,15.1667 1553.5,9.5 Z"/></g>
<g><path style="opacity:1" fill="#bea993" d="M 1229.5,9.5 C 1229.5,15.1667 1229.5,20.8333 1229.5,26.5C 1222.83,20.8333 1222.83,15.1667 1229.5,9.5 Z"/></g>
<g><path style="opacity:1" fill="#e3d9c7" d="M 1283.5,8.5 C 1283.83,8.5 1284.17,8.5 1284.5,8.5C 1284.5,14.8333 1284.5,21.1667 1284.5,27.5C 1282.83,27.5 1281.17,27.5 1279.5,27.5C 1279.5,21.1667 1279.5,14.8333 1279.5,8.5C 1280.83,8.5 1282.17,8.5 1283.5,8.5 Z"/></g>
<g><path style="opacity:1" fill="#cebfac" d="M 1330.5,8.5 C 1328.8,8.33982 1327.13,8.50649 1325.5,9C 1326.83,15 1326.83,21 1325.5,27C 1327.13,27.4935 1328.8,27.6602 1330.5,27.5C 1326.29,29.1737 1322.62,28.1737 1319.5,24.5C 1315.46,15.5903 1318.12,9.92366 1327.5,7.5C 1328.73,7.51954 1329.73,7.85287 1330.5,8.5 Z"/></g>
<g><path style="opacity:1" fill="#e4dbc9" d="M 1561.5,8.5 C 1561.83,8.5 1562.17,8.5 1562.5,8.5C 1562.5,14.8333 1562.5,21.1667 1562.5,27.5C 1561.83,27.5 1561.17,27.5 1560.5,27.5C 1559.5,27.5 1558.5,27.5 1557.5,27.5C 1557.5,21.1667 1557.5,14.8333 1557.5,8.5C 1558.83,8.5 1560.17,8.5 1561.5,8.5 Z"/></g>
<g><path style="opacity:1" fill="#c1ae9a" d="M 1608.5,8.5 C 1606.83,8.5 1605.17,8.5 1603.5,8.5C 1603.66,9.87344 1603.49,11.2068 1603,12.5C 1602.69,11.6919 1602.19,11.0253 1601.5,10.5C 1600.31,16.1735 1600.31,21.8401 1601.5,27.5C 1595.85,24.5365 1594.02,19.8699 1596,13.5C 1599.04,8.55135 1603.2,6.88469 1608.5,8.5 Z"/></g>
<g><path style="opacity:1" fill="#daccb9" d="M 1186.5,7.5 C 1194.35,6.36163 1198.69,9.69496 1199.5,17.5C 1197.77,25.8657 1192.77,28.8657 1184.5,26.5C 1184.02,19.9852 1184.69,13.6518 1186.5,7.5 Z"/></g>
<g><path style="opacity:1" fill="#c0ad98" d="M 1370.5,8.5 C 1369.17,14.8333 1369.17,21.1667 1370.5,27.5C 1363.65,24.4402 1361.81,19.4402 1365,12.5C 1366.45,10.5359 1368.28,9.20261 1370.5,8.5 Z"/></g>
<g><path style="opacity:1" fill="#e3d9c7" d="M 1421.5,8.5 C 1422.5,8.5 1423.5,8.5 1424.5,8.5C 1424.5,14.8333 1424.5,21.1667 1424.5,27.5C 1423.5,27.5 1422.5,27.5 1421.5,27.5C 1420.5,27.5 1419.5,27.5 1418.5,27.5C 1418.5,21.1667 1418.5,14.8333 1418.5,8.5C 1419.5,8.5 1420.5,8.5 1421.5,8.5 Z"/></g>
<g><path style="opacity:1" fill="#e0d6c4" d="M 1516.5,8.5 C 1516.5,14.8333 1516.5,21.1667 1516.5,27.5C 1514.06,28.7563 1511.73,28.7563 1509.5,27.5C 1508.44,21.5889 1507.78,15.5889 1507.5,9.5C 1510.27,7.48327 1513.27,7.14993 1516.5,8.5 Z"/></g>
<g><path style="opacity:1" fill="#c4b19b" d="M 1186.5,7.5 C 1184.69,13.6518 1184.02,19.9852 1184.5,26.5C 1179.81,23.012 1178.31,18.3453 1180,12.5C 1181.56,9.97868 1183.72,8.31201 1186.5,7.5 Z"/></g>
<g><path style="opacity:1" fill="#cfc1af" d="M 1237.5,8.5 C 1236.17,8.5 1234.83,8.5 1233.5,8.5C 1233.5,14.8333 1233.5,21.1667 1233.5,27.5C 1234.83,27.5 1236.17,27.5 1237.5,27.5C 1234.71,28.746 1232.04,28.4127 1229.5,26.5C 1229.5,20.8333 1229.5,15.1667 1229.5,9.5C 1232.12,7.5663 1234.78,7.23297 1237.5,8.5 Z"/></g>
<g><path style="opacity:1" fill="#e5dcca" d="M 1237.5,8.5 C 1237.83,8.5 1238.17,8.5 1238.5,8.5C 1238.5,14.8333 1238.5,21.1667 1238.5,27.5C 1238.17,27.5 1237.83,27.5 1237.5,27.5C 1236.17,27.5 1234.83,27.5 1233.5,27.5C 1233.5,21.1667 1233.5,14.8333 1233.5,8.5C 1234.83,8.5 1236.17,8.5 1237.5,8.5 Z"/></g>
<g><path style="opacity:1" fill="#cbbba7" d="M 1283.5,8.5 C 1282.17,8.5 1280.83,8.5 1279.5,8.5C 1279.5,14.8333 1279.5,21.1667 1279.5,27.5C 1281.17,27.5 1282.83,27.5 1284.5,27.5C 1274.09,28.9132 1269.93,24.2465 1272,13.5C 1274.76,8.8585 1278.59,7.19183 1283.5,8.5 Z"/></g>
<g><path style="opacity:1" fill="#d0bea8" d="M 1284.5,8.5 C 1291.35,11.5598 1293.19,16.5598 1290,23.5C 1288.55,25.4641 1286.72,26.7974 1284.5,27.5C 1284.5,21.1667 1284.5,14.8333 1284.5,8.5 Z"/></g>
<g><path style="opacity:1" fill="#e5dccb" d="M 1330.5,8.5 C 1330.83,8.5 1331.17,8.5 1331.5,8.5C 1331.5,14.8333 1331.5,21.1667 1331.5,27.5C 1331.17,27.5 1330.83,27.5 1330.5,27.5C 1328.8,27.6602 1327.13,27.4935 1325.5,27C 1326.83,21 1326.83,15 1325.5,9C 1327.13,8.50649 1328.8,8.33982 1330.5,8.5 Z"/></g>
<g><path style="opacity:1" fill="#ccb9a4" d="M 1331.5,8.5 C 1337.15,11.4635 1338.98,16.1301 1337,22.5C 1335.95,25.0559 1334.11,26.7225 1331.5,27.5C 1331.5,21.1667 1331.5,14.8333 1331.5,8.5 Z"/></g>
<g><path style="opacity:1" fill="#dacfbd" d="M 1377.5,8.5 C 1377.5,14.8333 1377.5,21.1667 1377.5,27.5C 1375.06,28.7563 1372.73,28.7563 1370.5,27.5C 1369.17,21.1667 1369.17,14.8333 1370.5,8.5C 1372.83,7.16667 1375.17,7.16667 1377.5,8.5 Z"/></g>
<g><path style="opacity:1" fill="#cfbda7" d="M 1516.5,8.5 C 1520.88,10.0887 1522.88,13.2554 1522.5,18C 1522.88,22.7446 1520.88,25.9113 1516.5,27.5C 1516.5,21.1667 1516.5,14.8333 1516.5,8.5 Z"/></g>
<g><path style="opacity:1" fill="#d0c1ae" d="M 1561.5,8.5 C 1560.17,8.5 1558.83,8.5 1557.5,8.5C 1557.5,14.8333 1557.5,21.1667 1557.5,27.5C 1558.5,27.5 1559.5,27.5 1560.5,27.5C 1558.12,28.6721 1555.79,28.3388 1553.5,26.5C 1553.5,20.8333 1553.5,15.1667 1553.5,9.5C 1556.12,7.5663 1558.78,7.23297 1561.5,8.5 Z"/></g>
<g><path style="opacity:1" fill="#d1bfa9" d="M 1562.5,8.5 C 1568.96,11.7051 1570.79,16.7051 1568,23.5C 1566.55,25.4641 1564.72,26.7974 1562.5,27.5C 1562.5,21.1667 1562.5,14.8333 1562.5,8.5 Z"/></g>
<g><path style="opacity:1" fill="#d0bda6" d="M 1238.5,8.5 C 1242.88,10.0887 1244.88,13.2554 1244.5,18C 1244.88,22.7446 1242.88,25.9113 1238.5,27.5C 1238.5,21.1667 1238.5,14.8333 1238.5,8.5 Z"/></g>
<g><path style="opacity:1" fill="#c3b09a" d="M 1507.5,9.5 C 1507.78,15.5889 1508.44,21.5889 1509.5,27.5C 1502.65,24.4402 1500.81,19.4402 1504,12.5C 1505.04,11.2899 1506.21,10.2899 1507.5,9.5 Z"/></g>
<g><path style="opacity:1" fill="#d7c9b6" d="M 1461.5,26.5 C 1461.5,20.8333 1461.5,15.1667 1461.5,9.5C 1466.22,6.56237 1470.55,7.22903 1474.5,11.5C 1479.02,20.6259 1476.36,26.2925 1466.5,28.5C 1464.44,28.5643 1462.78,27.8976 1461.5,26.5 Z"/></g>
<g><path style="opacity:1" fill="#c3af99" d="M 1461.5,9.5 C 1461.5,15.1667 1461.5,20.8333 1461.5,26.5C 1456.74,23.5082 1455.24,19.1748 1457,13.5C 1458.05,11.6156 1459.55,10.2823 1461.5,9.5 Z"/></g>
<g><path style="opacity:1" fill="#cbbaa6" d="M 1421.5,8.5 C 1420.5,8.5 1419.5,8.5 1418.5,8.5C 1418.5,14.8333 1418.5,21.1667 1418.5,27.5C 1419.5,27.5 1420.5,27.5 1421.5,27.5C 1412.14,27.8978 1408.64,23.2311 1411,13.5C 1413.49,9.16568 1416.99,7.49901 1421.5,8.5 Z"/></g>
<g><path style="opacity:1" fill="#2d3134" d="M -0.5,25.5 C 95.8333,121.5 192.167,217.5 288.5,313.5C 192.335,314.499 96.0014,314.833 -0.5,314.5C -0.5,218.167 -0.5,121.833 -0.5,25.5 Z"/></g>
<g><path style="opacity:1" fill="#e2d8c6" d="M 1464.5,54.5 C 1466.74,54.2053 1468.74,54.5386 1470.5,55.5C 1470.5,61.5 1470.5,67.5 1470.5,73.5C 1468.62,74.3414 1466.62,74.6747 1464.5,74.5C 1463.17,67.8333 1463.17,61.1667 1464.5,54.5 Z"/></g>
<g><path style="opacity:1" fill="#dfd3c1" d="M 1240.5,54.5 C 1240.5,60.5 1240.5,66.5 1240.5,72.5C 1238.28,73.3686 1235.95,73.702 1233.5,73.5C 1232.83,67.1667 1232.17,60.8333 1231.5,54.5C 1234.5,53.1667 1237.5,53.1667 1240.5,54.5 Z"/></g>
<g><path style="opacity:1" fill="#dfd5c2" d="M 1424.5,55.5 C 1424.5,61.5 1424.5,67.5 1424.5,73.5C 1421.5,74.8333 1418.5,74.8333 1415.5,73.5C 1414.23,67.492 1414.23,61.492 1415.5,55.5C 1418.5,54.1667 1421.5,54.1667 1424.5,55.5 Z"/></g>
<g><path style="opacity:1" fill="#cab8a4" d="M 1556.5,54.5 C 1555.54,60.7436 1555.21,67.077 1555.5,73.5C 1551.12,72.1149 1549.12,69.1149 1549.5,64.5C 1548.9,59.0152 1551.23,55.6819 1556.5,54.5 Z"/></g>
<g><path style="opacity:1" fill="#e1d7c5" d="M 1371.5,54.5 C 1373.5,54.5 1375.5,54.5 1377.5,54.5C 1378.42,60.7748 1378.75,67.1082 1378.5,73.5C 1378.17,73.5 1377.83,73.5 1377.5,73.5C 1375.5,73.5 1373.5,73.5 1371.5,73.5C 1370.88,67.0837 1370.88,60.7504 1371.5,54.5 Z"/></g>
<g><path style="opacity:1" fill="#ccb9a3" d="M 1377.5,54.5 C 1383.21,57.8268 1385.05,62.8268 1383,69.5C 1381.63,71.0414 1380.13,72.3747 1378.5,73.5C 1378.75,67.1082 1378.42,60.7748 1377.5,54.5 Z"/></g>
<g><path style="opacity:1" fill="#dacdba" d="M 1278.5,54.5 C 1286.35,53.3616 1290.69,56.695 1291.5,64.5C 1289.96,72.5959 1285.29,75.5959 1277.5,73.5C 1276.12,67.0947 1276.45,60.7614 1278.5,54.5 Z"/></g>
<g><path style="opacity:1" fill="#c8b6a2" d="M 1371.5,54.5 C 1370.88,60.7504 1370.88,67.0837 1371.5,73.5C 1373.5,73.5 1375.5,73.5 1377.5,73.5C 1367.73,75.6753 1363.23,71.6753 1364,61.5C 1365.08,57.5817 1367.58,55.2483 1371.5,54.5 Z"/></g>
<g><path style="opacity:1" fill="#cebba5" d="M 1424.5,55.5 C 1428.67,56.9211 1430.67,59.9211 1430.5,64.5C 1430.22,68.7596 1428.22,71.7596 1424.5,73.5C 1424.5,67.5 1424.5,61.5 1424.5,55.5 Z"/></g>
<g><path style="opacity:1" fill="#c3ad97" d="M 1322.5,55.5 C 1322.5,61.1667 1322.5,66.8333 1322.5,72.5C 1318.85,71.2139 1317.18,68.5473 1317.5,64.5C 1317.36,60.4432 1319.03,57.4432 1322.5,55.5 Z"/></g>
<g><path style="opacity:1" fill="#d9cab7" d="M 1322.5,72.5 C 1322.5,66.8333 1322.5,61.1667 1322.5,55.5C 1333.45,52.9459 1338.28,57.2793 1337,68.5C 1334.08,74.0248 1329.58,75.8581 1323.5,74C 1322.94,73.6174 1322.61,73.1174 1322.5,72.5 Z"/></g>
<g><path style="opacity:1" fill="#cab8a3" d="M 1464.5,54.5 C 1463.17,61.1667 1463.17,67.8333 1464.5,74.5C 1457.27,72.0416 1454.77,67.0416 1457,59.5C 1458.86,56.8002 1461.36,55.1335 1464.5,54.5 Z"/></g>
<g><path style="opacity:1" fill="#d0bea8" d="M 1516.5,54.5 C 1522.21,57.8731 1524.04,62.8731 1522,69.5C 1520.55,71.4641 1518.72,72.7974 1516.5,73.5C 1516.5,67.1667 1516.5,60.8333 1516.5,54.5 Z"/></g>
<g><path style="opacity:1" fill="#e0d5c4" d="M 1556.5,54.5 C 1558.5,54.5 1560.5,54.5 1562.5,54.5C 1562.5,60.8333 1562.5,67.1667 1562.5,73.5C 1560.17,74.8333 1557.83,74.8333 1555.5,73.5C 1555.21,67.077 1555.54,60.7436 1556.5,54.5 Z"/></g>
<g><path style="opacity:1" fill="#cfbca6" d="M 1562.5,54.5 C 1568.82,57.8062 1570.65,62.8062 1568,69.5C 1566.85,71.8189 1565.02,73.1523 1562.5,73.5C 1562.5,67.1667 1562.5,60.8333 1562.5,54.5 Z"/></g>
<g><path style="opacity:1" fill="#e3dac8" d="M 1510.5,54.5 C 1512.5,54.5 1514.5,54.5 1516.5,54.5C 1516.5,60.8333 1516.5,67.1667 1516.5,73.5C 1514.5,73.5 1512.5,73.5 1510.5,73.5C 1510.5,67.1667 1510.5,60.8333 1510.5,54.5 Z"/></g>
<g><path style="opacity:1" fill="#c5b29b" d="M 1278.5,54.5 C 1276.45,60.7614 1276.12,67.0947 1277.5,73.5C 1273.13,71.9427 1271.13,68.7761 1271.5,64C 1271.05,58.7079 1273.39,55.5412 1278.5,54.5 Z"/></g>
<g><path style="opacity:1" fill="#cab8a2" d="M 1231.5,54.5 C 1232.17,60.8333 1232.83,67.1667 1233.5,73.5C 1225.62,70.6381 1223.45,65.3047 1227,57.5C 1228.27,56.1175 1229.77,55.1175 1231.5,54.5 Z"/></g>
<g><path style="opacity:1" fill="#cfbca5" d="M 1470.5,55.5 C 1474.72,56.9199 1476.72,59.9199 1476.5,64.5C 1476.73,69.0483 1474.73,72.0483 1470.5,73.5C 1470.5,67.5 1470.5,61.5 1470.5,55.5 Z"/></g>
<g><path style="opacity:1" fill="#cfbba5" d="M 1240.5,54.5 C 1245.63,58.4516 1246.8,63.4516 1244,69.5C 1242.96,70.7101 1241.79,71.7101 1240.5,72.5C 1240.5,66.5 1240.5,60.5 1240.5,54.5 Z"/></g>
<g><path style="opacity:1" fill="#c0aa94" d="M 1415.5,55.5 C 1414.23,61.492 1414.23,67.492 1415.5,73.5C 1411.7,71.6951 1410.03,68.6951 1410.5,64.5C 1409.86,60.095 1411.53,57.095 1415.5,55.5 Z"/></g>
<g><path style="opacity:1" fill="#c9b8a3" d="M 1510.5,54.5 C 1510.5,60.8333 1510.5,67.1667 1510.5,73.5C 1512.5,73.5 1514.5,73.5 1516.5,73.5C 1505.09,74.9101 1500.93,69.9101 1504,58.5C 1505.64,56.2663 1507.8,54.933 1510.5,54.5 Z"/></g>
<g><path style="opacity:1" fill="#e0d5c4" d="M 1377.5,101.5 C 1377.5,107.833 1377.5,114.167 1377.5,120.5C 1375.5,120.5 1373.5,120.5 1371.5,120.5C 1370.54,114.256 1370.21,107.923 1370.5,101.5C 1372.83,100.167 1375.17,100.167 1377.5,101.5 Z"/></g>
<g><path style="opacity:1" fill="#d1bfa8" d="M 1285.5,100.5 C 1289.88,102.089 1291.88,105.255 1291.5,110C 1291.88,114.745 1289.88,117.911 1285.5,119.5C 1285.5,113.167 1285.5,106.833 1285.5,100.5 Z"/></g>
<g><path style="opacity:1" fill="#c7b49f" d="M 1370.5,101.5 C 1370.21,107.923 1370.54,114.256 1371.5,120.5C 1363.43,116.99 1361.59,111.324 1366,103.5C 1367.33,102.418 1368.83,101.751 1370.5,101.5 Z"/></g>
<g><path style="opacity:1" fill="#dfd6c4" d="M 1423.5,101.5 C 1423.5,107.833 1423.5,114.167 1423.5,120.5C 1421.5,120.5 1419.5,120.5 1417.5,120.5C 1416.54,114.256 1416.21,107.923 1416.5,101.5C 1418.83,100.167 1421.17,100.167 1423.5,101.5 Z"/></g>
<g><path style="opacity:1" fill="#d9cbb7" d="M 1460.5,118.5 C 1460.26,112.773 1460.59,107.106 1461.5,101.5C 1472.45,98.9459 1477.28,103.279 1476,114.5C 1474.2,118.651 1471.03,120.651 1466.5,120.5C 1464.12,120.639 1462.12,119.972 1460.5,118.5 Z"/></g>
<g><path style="opacity:1" fill="#d1c0ab" d="M 1330.5,120.5 C 1330.5,114.167 1330.5,107.833 1330.5,101.5C 1329.17,101.5 1327.83,101.5 1326.5,101.5C 1326.04,105.677 1325.37,109.51 1324.5,113C 1324.56,115.587 1324.89,118.087 1325.5,120.5C 1317.62,117.638 1315.45,112.305 1319,104.5C 1323.2,100.286 1328.03,99.4522 1333.5,102C 1337.2,105.396 1338.37,109.563 1337,114.5C 1335.62,117.386 1333.45,119.386 1330.5,120.5 Z"/></g>
<g><path style="opacity:1" fill="#cebba5" d="M 1377.5,101.5 C 1381.88,102.885 1383.88,105.885 1383.5,110.5C 1383.58,115.085 1381.58,118.419 1377.5,120.5C 1377.5,114.167 1377.5,107.833 1377.5,101.5 Z"/></g>
<g><path style="opacity:1" fill="#cfbda7" d="M 1423.5,101.5 C 1430.3,104.458 1432.13,109.458 1429,116.5C 1427.57,118.439 1425.73,119.772 1423.5,120.5C 1423.5,114.167 1423.5,107.833 1423.5,101.5 Z"/></g>
<g><path style="opacity:1" fill="#c5b29d" d="M 1278.5,100.5 C 1277.17,106.833 1277.17,113.167 1278.5,119.5C 1272.04,116.307 1270.21,111.307 1273,104.5C 1274.45,102.536 1276.28,101.203 1278.5,100.5 Z"/></g>
<g><path style="opacity:1" fill="#c7b59f" d="M 1416.5,101.5 C 1416.21,107.923 1416.54,114.256 1417.5,120.5C 1412.23,119.318 1409.9,115.985 1410.5,110.5C 1410.12,105.885 1412.12,102.885 1416.5,101.5 Z"/></g>
<g><path style="opacity:1" fill="#e0d6c4" d="M 1285.5,100.5 C 1285.5,106.833 1285.5,113.167 1285.5,119.5C 1283.17,120.833 1280.83,120.833 1278.5,119.5C 1277.17,113.167 1277.17,106.833 1278.5,100.5C 1280.83,99.1667 1283.17,99.1667 1285.5,100.5 Z"/></g>
<g><path style="opacity:1" fill="#e3dac9" d="M 1330.5,120.5 C 1328.83,120.5 1327.17,120.5 1325.5,120.5C 1324.89,118.087 1324.56,115.587 1324.5,113C 1325.37,109.51 1326.04,105.677 1326.5,101.5C 1327.83,101.5 1329.17,101.5 1330.5,101.5C 1330.5,107.833 1330.5,114.167 1330.5,120.5 Z"/></g>
<g><path style="opacity:1" fill="#bea891" d="M 1461.5,101.5 C 1460.59,107.106 1460.26,112.773 1460.5,118.5C 1457.6,116.695 1456.26,114.029 1456.5,110.5C 1456.36,106.443 1458.03,103.443 1461.5,101.5 Z"/></g>
<g><path style="opacity:1" fill="#bba690" d="M 1507.5,102.5 C 1506.4,108.108 1506.4,113.775 1507.5,119.5C 1501.89,115.056 1501.05,109.722 1505,103.5C 1505.67,102.748 1506.5,102.414 1507.5,102.5 Z"/></g>
<g><path style="opacity:1" fill="#d9ccb8" d="M 1507.5,119.5 C 1506.4,113.775 1506.4,108.108 1507.5,102.5C 1513.05,99.2753 1517.88,100.275 1522,105.5C 1524.17,117.501 1519.33,122.167 1507.5,119.5 Z"/></g>
<g><path style="opacity:1" fill="#e4dac8" d="M 1469.5,147.5 C 1469.83,147.5 1470.17,147.5 1470.5,147.5C 1470.5,153.833 1470.5,160.167 1470.5,166.5C 1469.83,166.5 1469.17,166.5 1468.5,166.5C 1467.17,166.5 1465.83,166.5 1464.5,166.5C 1464.5,160.167 1464.5,153.833 1464.5,147.5C 1466.17,147.5 1467.83,147.5 1469.5,147.5 Z"/></g>
<g><path style="opacity:1" fill="#d0bea8" d="M 1331.5,146.5 C 1338.73,150.519 1340.23,156.186 1336,163.5C 1334.67,164.582 1333.17,165.249 1331.5,165.5C 1331.5,159.167 1331.5,152.833 1331.5,146.5 Z"/></g>
<g><path style="opacity:1" fill="#dccfbc" d="M 1370.5,166.5 C 1369.17,160.167 1369.17,153.833 1370.5,147.5C 1381,146.172 1385.16,150.838 1383,161.5C 1380.05,166.395 1375.89,168.062 1370.5,166.5 Z"/></g>
<g><path style="opacity:1" fill="#e0d6c5" d="M 1325.5,146.5 C 1327.5,146.5 1329.5,146.5 1331.5,146.5C 1331.5,152.833 1331.5,159.167 1331.5,165.5C 1329.17,166.833 1326.83,166.833 1324.5,165.5C 1324.21,159.077 1324.54,152.744 1325.5,146.5 Z"/></g>
<g><path style="opacity:1" fill="#c1ae99" d="M 1370.5,147.5 C 1369.17,153.833 1369.17,160.167 1370.5,166.5C 1363.65,163.44 1361.81,158.44 1365,151.5C 1366.45,149.536 1368.28,148.203 1370.5,147.5 Z"/></g>
<g><path style="opacity:1" fill="#e2d9c7" d="M 1423.5,147.5 C 1423.5,153.833 1423.5,160.167 1423.5,166.5C 1423.17,166.5 1422.83,166.5 1422.5,166.5C 1421.17,166.5 1419.83,166.5 1418.5,166.5C 1418.5,160.167 1418.5,153.833 1418.5,147.5C 1420.17,147.5 1421.83,147.5 1423.5,147.5 Z"/></g>
<g><path style="opacity:1" fill="#d0bda7" d="M 1423.5,147.5 C 1429.95,150.672 1431.78,155.672 1429,162.5C 1427.57,164.439 1425.73,165.772 1423.5,166.5C 1423.5,160.167 1423.5,153.833 1423.5,147.5 Z"/></g>
<g><path style="opacity:1" fill="#cbbaa6" d="M 1423.5,147.5 C 1421.83,147.5 1420.17,147.5 1418.5,147.5C 1418.5,153.833 1418.5,160.167 1418.5,166.5C 1419.83,166.5 1421.17,166.5 1422.5,166.5C 1412.13,167.219 1408.29,162.219 1411,151.5C 1414.48,147.311 1418.65,145.978 1423.5,147.5 Z"/></g>
<g><path style="opacity:1" fill="#cbbaa6" d="M 1469.5,147.5 C 1467.83,147.5 1466.17,147.5 1464.5,147.5C 1464.5,153.833 1464.5,160.167 1464.5,166.5C 1465.83,166.5 1467.17,166.5 1468.5,166.5C 1463.63,167.83 1459.8,166.163 1457,161.5C 1454.99,150.831 1459.16,146.164 1469.5,147.5 Z"/></g>
<g><path style="opacity:1" fill="#c8b7a2" d="M 1325.5,146.5 C 1324.54,152.744 1324.21,159.077 1324.5,165.5C 1320.13,163.943 1318.13,160.776 1318.5,156C 1318.05,150.708 1320.39,147.541 1325.5,146.5 Z"/></g>
<g><path style="opacity:1" fill="#cfbda7" d="M 1470.5,147.5 C 1476.58,150.939 1478.08,155.939 1475,162.5C 1473.63,164.041 1472.13,165.375 1470.5,166.5C 1470.5,160.167 1470.5,153.833 1470.5,147.5 Z"/></g>
<g><path style="opacity:1" fill="#cab7a1" d="M 1417.5,193.5 C 1416.54,199.744 1416.21,206.077 1416.5,212.5C 1412.13,210.943 1410.13,207.776 1410.5,203C 1410.05,197.708 1412.39,194.541 1417.5,193.5 Z"/></g>
<g><path style="opacity:1" fill="#d0bda6" d="M 1378.5,193.5 C 1382.72,194.92 1384.72,197.92 1384.5,202.5C 1384.72,207.08 1382.72,210.08 1378.5,211.5C 1378.5,205.5 1378.5,199.5 1378.5,193.5 Z"/></g>
<g><path style="opacity:1" fill="#beaa94" d="M 1369.5,193.5 C 1369.5,199.5 1369.5,205.5 1369.5,211.5C 1364.37,207.548 1363.2,202.548 1366,196.5C 1367.04,195.29 1368.21,194.29 1369.5,193.5 Z"/></g>
<g><path style="opacity:1" fill="#ded4c1" d="M 1378.5,193.5 C 1378.5,199.5 1378.5,205.5 1378.5,211.5C 1375.6,212.775 1372.6,212.775 1369.5,211.5C 1369.5,205.5 1369.5,199.5 1369.5,193.5C 1372.6,192.225 1375.6,192.225 1378.5,193.5 Z"/></g>
<g><path style="opacity:1" fill="#e2d7c5" d="M 1417.5,193.5 C 1420.06,193.198 1422.39,193.532 1424.5,194.5C 1424.5,200.5 1424.5,206.5 1424.5,212.5C 1421.73,213.767 1419.06,213.767 1416.5,212.5C 1416.21,206.077 1416.54,199.744 1417.5,193.5 Z"/></g>
<g><path style="opacity:1" fill="#cfbca6" d="M 1424.5,194.5 C 1428.67,195.921 1430.67,198.921 1430.5,203.5C 1430.09,207.573 1428.09,210.573 1424.5,212.5C 1424.5,206.5 1424.5,200.5 1424.5,194.5 Z"/></g>
<g><path style="opacity:1" fill="#687076" d="M 4699.5,259.5 C 4709.09,267.756 4718.43,276.422 4727.5,285.5C 4736.49,277.014 4745.32,268.348 4754,259.5C 4757.67,263.167 4761.33,266.833 4765,270.5C 4765.67,271.167 4765.67,271.833 4765,272.5C 4756.46,280.709 4748.29,289.209 4740.5,298C 4748.29,306.791 4756.46,315.291 4765,323.5C 4765.67,324.5 4765.67,325.5 4765,326.5C 4761.83,329.667 4758.67,332.833 4755.5,336C 4754.5,336.667 4753.5,336.667 4752.5,336C 4744.29,327.457 4735.79,319.29 4727,311.5C 4718.03,319.638 4709.19,327.971 4700.5,336.5C 4696.35,332.849 4692.35,329.016 4688.5,325C 4697.35,316.319 4706.01,307.486 4714.5,298.5C 4705.83,289.5 4697.17,280.5 4688.5,271.5C 4692.92,268.085 4696.59,264.085 4699.5,259.5 Z"/></g>
<g><path style="opacity:1" fill="#5b6266" d="M 288.5,313.5 C 289.043,313.56 289.376,313.893 289.5,314.5C 192.836,315.5 96.169,315.833 -0.5,315.5C -0.5,315.167 -0.5,314.833 -0.5,314.5C 96.0014,314.833 192.335,314.499 288.5,313.5 Z"/></g>
<g><path style="opacity:1" fill="#2d3134" d="M -0.5,359.5 C 111.167,359.333 222.834,359.5 334.5,360C 383.361,409.194 432.528,458.028 482,506.5C 482.667,628.167 482.667,749.833 482,871.5C 320.993,711.326 160.159,550.993 -0.5,390.5C -0.5,380.167 -0.5,369.833 -0.5,359.5 Z"/></g>
<g><path style="opacity:1" fill="#697076" d="M 4699.5,415.5 C 4709.09,423.756 4718.43,432.422 4727.5,441.5C 4736.5,432.833 4745.5,424.167 4754.5,415.5C 4758.15,418.651 4761.65,421.984 4765,425.5C 4765.67,426.5 4765.67,427.5 4765,428.5C 4756.5,437 4748,445.5 4739.5,454C 4748.35,462.681 4757.01,471.514 4765.5,480.5C 4761.85,484.652 4758.02,488.652 4754,492.5C 4745.32,483.652 4736.49,474.986 4727.5,466.5C 4718.5,475.167 4709.5,483.833 4700.5,492.5C 4696.17,488.833 4692.17,484.833 4688.5,480.5C 4697.7,472.139 4706.36,463.305 4714.5,454C 4706.21,444.708 4697.54,435.708 4688.5,427C 4692.37,423.298 4696.04,419.464 4699.5,415.5 Z"/></g>
<g><path style="opacity:1" fill="#7f7f7d" d="M 910.5,520.5 C 793.665,520.167 676.999,520.5 560.5,521.5C 559.957,521.44 559.624,521.107 559.5,520.5C 676.666,519.168 793.666,519.168 910.5,520.5 Z"/></g>
<g><path style="opacity:1" fill="#b9a38d" d="M 560.5,521.5 C 676.999,520.5 793.665,520.167 910.5,520.5C 910.5,522.167 910.5,523.833 910.5,525.5C 795.5,525.5 680.5,525.5 565.5,525.5C 563.833,524.167 562.167,522.833 560.5,521.5 Z"/></g>
<g><path style="opacity:1" fill="#bda790" d="M 565.5,525.5 C 680.5,525.5 795.5,525.5 910.5,525.5C 910.5,527.833 910.5,530.167 910.5,532.5C 797.833,532.5 685.167,532.5 572.5,532.5C 569.833,530.5 567.5,528.167 565.5,525.5 Z"/></g>
<g><path style="opacity:1" fill="#c1ab94" d="M 572.5,532.5 C 685.167,532.5 797.833,532.5 910.5,532.5C 910.5,535.5 910.5,538.5 910.5,541.5C 800.833,541.5 691.167,541.5 581.5,541.5C 578.167,538.833 575.167,535.833 572.5,532.5 Z"/></g>
<g><path style="opacity:1" fill="#c7b098" d="M 581.5,541.5 C 691.167,541.5 800.833,541.5 910.5,541.5C 910.5,545.167 910.5,548.833 910.5,552.5C 804.5,552.5 698.5,552.5 592.5,552.5C 588.5,549.167 584.833,545.5 581.5,541.5 Z"/></g>
<g><path style="opacity:1" fill="#c7b09a" d="M 592.5,552.5 C 698.5,552.5 804.5,552.5 910.5,552.5C 910.5,554.5 910.5,556.5 910.5,558.5C 806.5,558.5 702.5,558.5 598.5,558.5C 596.167,556.833 594.167,554.833 592.5,552.5 Z"/></g>
<g><path style="opacity:1" fill="#c8b29b" d="M 598.5,558.5 C 702.5,558.5 806.5,558.5 910.5,558.5C 910.5,560.5 910.5,562.5 910.5,564.5C 808.5,564.5 706.5,564.5 604.5,564.5C 602.167,562.833 600.167,560.833 598.5,558.5 Z"/></g>
<g><path style="opacity:1" fill="#c9b39c" d="M 604.5,564.5 C 706.5,564.5 808.5,564.5 910.5,564.5C 910.5,566.5 910.5,568.5 910.5,570.5C 810.5,570.5 710.5,570.5 610.5,570.5C 608.167,568.833 606.167,566.833 604.5,564.5 Z"/></g>
<g><path style="opacity:1" fill="#cab49e" d="M 610.5,570.5 C 710.5,570.5 810.5,570.5 910.5,570.5C 910.5,572.5 910.5,574.5 910.5,576.5C 812.5,576.5 714.5,576.5 616.5,576.5C 614.167,574.833 612.167,572.833 610.5,570.5 Z"/></g>
<g><path style="opacity:1" fill="#687075" d="M 4699.5,570.5 C 4709.09,578.756 4718.43,587.422 4727.5,596.5C 4736.49,588.014 4745.32,579.348 4754,570.5C 4757.67,574.167 4761.33,577.833 4765,581.5C 4765.67,582.167 4765.67,582.833 4765,583.5C 4756.46,591.709 4748.29,600.209 4740.5,609C 4748.29,617.791 4756.46,626.291 4765,634.5C 4765.67,635.5 4765.67,636.5 4765,637.5C 4761.83,640.667 4758.67,643.833 4755.5,647C 4754.5,647.667 4753.5,647.667 4752.5,647C 4744.29,638.457 4735.79,630.29 4727,622.5C 4718.03,630.638 4709.19,638.971 4700.5,647.5C 4696.35,643.849 4692.35,640.016 4688.5,636C 4697.35,627.319 4706.01,618.486 4714.5,609.5C 4705.83,600.5 4697.17,591.5 4688.5,582.5C 4692.92,579.085 4696.59,575.085 4699.5,570.5 Z"/></g>
<g><path style="opacity:1" fill="#cab69f" d="M 616.5,576.5 C 714.5,576.5 812.5,576.5 910.5,576.5C 910.5,578.5 910.5,580.5 910.5,582.5C 814.5,582.5 718.5,582.5 622.5,582.5C 620.167,580.833 618.167,578.833 616.5,576.5 Z"/></g>
<g><path style="opacity:1" fill="#cfbca5" d="M 622.5,582.5 C 718.5,582.5 814.5,582.5 910.5,582.5C 910.5,594.833 910.5,607.167 910.5,619.5C 826.833,619.5 743.167,619.5 659.5,619.5C 646.833,607.5 634.5,595.167 622.5,582.5 Z"/></g>
<g><path style="opacity:1" fill="#d0bea8" d="M 624.5,649.5 C 592.167,649.5 559.833,649.5 527.5,649.5C 527.333,617.165 527.5,584.832 528,552.5C 560.368,584.701 592.535,617.035 624.5,649.5 Z"/></g>
<g><path style="opacity:1" fill="#d0bea9" d="M 659.5,619.5 C 743.167,619.5 826.833,619.5 910.5,619.5C 910.5,621.5 910.5,623.5 910.5,625.5C 828.833,625.5 747.167,625.5 665.5,625.5C 663.167,623.833 661.167,621.833 659.5,619.5 Z"/></g>
<g><path style="opacity:1" fill="#dbcdb9" d="M 1415.5,620.5 C 1425.52,620.211 1428.19,624.544 1423.5,633.5C 1414.72,636.541 1410.89,633.541 1412,624.5C 1412.69,622.65 1413.86,621.316 1415.5,620.5 Z"/></g>
<g><path style="opacity:1" fill="#d1bfaa" d="M 665.5,625.5 C 747.167,625.5 828.833,625.5 910.5,625.5C 910.5,627.5 910.5,629.5 910.5,631.5C 830.833,631.5 751.167,631.5 671.5,631.5C 669.167,629.833 667.167,627.833 665.5,625.5 Z"/></g>
<g><path style="opacity:1" fill="#d2c1ac" d="M 671.5,631.5 C 751.167,631.5 830.833,631.5 910.5,631.5C 910.5,633.5 910.5,635.5 910.5,637.5C 832.833,637.5 755.167,637.5 677.5,637.5C 675.167,635.833 673.167,633.833 671.5,631.5 Z"/></g>
<g><path style="opacity:1" fill="#d4c5b1" d="M 1373.5,632.5 C 1381.15,632.313 1384.31,635.98 1383,643.5C 1379.04,648.436 1374.71,648.769 1370,644.5C 1369.33,641.5 1369.33,638.5 1370,635.5C 1371.15,634.364 1372.31,633.364 1373.5,632.5 Z"/></g>
<g><path style="opacity:1" fill="#c1ad97" d="M 1458.5,631.5 C 1457.71,635.785 1457.37,640.119 1457.5,644.5C 1455.08,643.308 1454.08,641.308 1454.5,638.5C 1454.16,635.182 1455.49,632.848 1458.5,631.5 Z"/></g>
<g><path style="opacity:1" fill="#d3c2ac" d="M 677.5,637.5 C 755.167,637.5 832.833,637.5 910.5,637.5C 910.5,639.5 910.5,641.5 910.5,643.5C 834.833,643.5 759.167,643.5 683.5,643.5C 681.167,641.833 679.167,639.833 677.5,637.5 Z"/></g>
<g><path style="opacity:1" fill="#dcd0bc" d="M 1457.5,644.5 C 1457.37,640.119 1457.71,635.785 1458.5,631.5C 1464.53,629.857 1467.87,632.19 1468.5,638.5C 1467.41,644.884 1463.74,646.884 1457.5,644.5 Z"/></g>
<g><path style="opacity:1" fill="#d4c3ae" d="M 683.5,643.5 C 759.167,643.5 834.833,643.5 910.5,643.5C 910.5,645.5 910.5,647.5 910.5,649.5C 836.833,649.5 763.167,649.5 689.5,649.5C 687.167,647.833 685.167,645.833 683.5,643.5 Z"/></g>
<g><path style="opacity:1" fill="#d9c8b3" d="M 689.5,649.5 C 763.167,649.5 836.833,649.5 910.5,649.5C 910.5,656.5 910.5,663.5 910.5,670.5C 843.833,670.5 777.167,670.5 710.5,670.5C 703.167,663.833 696.167,656.833 689.5,649.5 Z"/></g>
<g><path style="opacity:1" fill="#d3c5b2" d="M 1342.5,664.5 C 1348.52,663.197 1352.19,665.53 1353.5,671.5C 1352.86,677.648 1349.52,680.148 1343.5,679C 1338.86,676.928 1337.36,673.428 1339,668.5C 1339.69,666.65 1340.86,665.316 1342.5,664.5 Z"/></g>
<g><path style="opacity:1" fill="#d7c9b5" d="M 1490.5,661.5 C 1498.77,660.706 1501.94,664.373 1500,672.5C 1495.62,677.815 1491.29,677.815 1487,672.5C 1485.52,667.774 1486.68,664.107 1490.5,661.5 Z"/></g>
<g><path style="opacity:1" fill="#dbcbb6" d="M 710.5,670.5 C 777.167,670.5 843.833,670.5 910.5,670.5C 910.5,677.833 910.5,685.167 910.5,692.5C 851.167,692.5 791.833,692.5 732.5,692.5C 724.833,685.5 717.5,678.167 710.5,670.5 Z"/></g>
<g><path style="opacity:1" fill="#dbcab6" d="M 527.5,649.5 C 559.833,649.5 592.167,649.5 624.5,649.5C 638.5,662.833 652.167,676.5 665.5,690.5C 619.67,691.499 573.67,691.832 527.5,691.5C 527.5,677.5 527.5,663.5 527.5,649.5 Z"/></g>
<g><path style="opacity:1" fill="#c6bba9" d="M 665.5,690.5 C 666.5,690.833 667.167,691.5 667.5,692.5C 620.833,692.5 574.167,692.5 527.5,692.5C 527.5,692.167 527.5,691.833 527.5,691.5C 573.67,691.832 619.67,691.499 665.5,690.5 Z"/></g>
<g><path style="opacity:1" fill="#ddceb9" d="M 527.5,692.5 C 574.167,692.5 620.833,692.5 667.5,692.5C 669.167,693.5 670.5,694.833 671.5,696.5C 623.67,697.499 575.67,697.832 527.5,697.5C 527.5,695.833 527.5,694.167 527.5,692.5 Z"/></g>
<g><path style="opacity:1" fill="#daccb7" d="M 732.5,692.5 C 791.833,692.5 851.167,692.5 910.5,692.5C 910.5,694.5 910.5,696.5 910.5,698.5C 853.167,698.5 795.833,698.5 738.5,698.5C 736.167,696.833 734.167,694.833 732.5,692.5 Z"/></g>
<g><path style="opacity:1" fill="#c7bcaa" d="M 671.5,696.5 C 672.5,696.833 673.167,697.5 673.5,698.5C 624.833,698.5 576.167,698.5 527.5,698.5C 527.5,698.167 527.5,697.833 527.5,697.5C 575.67,697.832 623.67,697.499 671.5,696.5 Z"/></g>
<g><path style="opacity:1" fill="#decfbc" d="M 527.5,698.5 C 576.167,698.5 624.833,698.5 673.5,698.5C 675.167,699.5 676.5,700.833 677.5,702.5C 627.669,703.499 577.669,703.832 527.5,703.5C 527.5,701.833 527.5,700.167 527.5,698.5 Z"/></g>
<g><path style="opacity:1" fill="#dbcdba" d="M 738.5,698.5 C 795.833,698.5 853.167,698.5 910.5,698.5C 910.5,700.5 910.5,702.5 910.5,704.5C 855.167,704.5 799.833,704.5 744.5,704.5C 742.167,702.833 740.167,700.833 738.5,698.5 Z"/></g>
<g><path style="opacity:1" fill="#c8bdab" d="M 677.5,702.5 C 678.5,702.833 679.167,703.5 679.5,704.5C 628.833,704.5 578.167,704.5 527.5,704.5C 527.5,704.167 527.5,703.833 527.5,703.5C 577.669,703.832 627.669,703.499 677.5,702.5 Z"/></g>
<g><path style="opacity:1" fill="#ded0bd" d="M 527.5,704.5 C 578.167,704.5 628.833,704.5 679.5,704.5C 681.167,705.5 682.5,706.833 683.5,708.5C 631.669,709.499 579.669,709.832 527.5,709.5C 527.5,707.833 527.5,706.167 527.5,704.5 Z"/></g>
<g><path style="opacity:1" fill="#dcceba" d="M 744.5,704.5 C 799.833,704.5 855.167,704.5 910.5,704.5C 910.5,706.5 910.5,708.5 910.5,710.5C 857.167,710.5 803.833,710.5 750.5,710.5C 748.167,708.833 746.167,706.833 744.5,704.5 Z"/></g>
<g><path style="opacity:1" fill="#ded1be" d="M 1331.5,720.5 C 1331.5,716.5 1331.5,712.5 1331.5,708.5C 1337.57,706.035 1341.24,708.035 1342.5,714.5C 1341.41,721.258 1337.74,723.258 1331.5,720.5 Z"/></g>
<g><path style="opacity:1" fill="#c8bcac" d="M 683.5,708.5 C 684.5,708.833 685.167,709.5 685.5,710.5C 632.833,710.5 580.167,710.5 527.5,710.5C 527.5,710.167 527.5,709.833 527.5,709.5C 579.669,709.832 631.669,709.499 683.5,708.5 Z"/></g>
<g><path style="opacity:1" fill="#dfd1be" d="M 527.5,710.5 C 580.167,710.5 632.833,710.5 685.5,710.5C 687.167,711.5 688.5,712.833 689.5,714.5C 635.669,715.499 581.669,715.832 527.5,715.5C 527.5,713.833 527.5,712.167 527.5,710.5 Z"/></g>
<g><path style="opacity:1" fill="#dccfbc" d="M 750.5,710.5 C 803.833,710.5 857.167,710.5 910.5,710.5C 910.5,712.5 910.5,714.5 910.5,716.5C 859.167,716.5 807.833,716.5 756.5,716.5C 754.167,714.833 752.167,712.833 750.5,710.5 Z"/></g>
<g><path style="opacity:1" fill="#d5c6b2" d="M 1501.5,704.5 C 1512.03,703.401 1515.03,707.568 1510.5,717C 1501.32,720.325 1497.49,717.158 1499,707.5C 1500.04,706.627 1500.88,705.627 1501.5,704.5 Z"/></g>
<g><path style="opacity:1" fill="#c0ac96" d="M 1331.5,708.5 C 1331.5,712.5 1331.5,716.5 1331.5,720.5C 1330.5,720.586 1329.67,720.252 1329,719.5C 1326.54,715.002 1327.38,711.336 1331.5,708.5 Z"/></g>
<g><path style="opacity:1" fill="#cabeae" d="M 689.5,714.5 C 690.5,714.833 691.167,715.5 691.5,716.5C 636.833,716.5 582.167,716.5 527.5,716.5C 527.5,716.167 527.5,715.833 527.5,715.5C 581.669,715.832 635.669,715.499 689.5,714.5 Z"/></g>
<g><path style="opacity:1" fill="#dfd2bf" d="M 527.5,716.5 C 582.167,716.5 636.833,716.5 691.5,716.5C 693.167,717.5 694.5,718.833 695.5,720.5C 639.669,721.499 583.669,721.832 527.5,721.5C 527.5,719.833 527.5,718.167 527.5,716.5 Z"/></g>
<g><path style="opacity:1" fill="#ddd0bd" d="M 756.5,716.5 C 807.833,716.5 859.167,716.5 910.5,716.5C 910.5,718.5 910.5,720.5 910.5,722.5C 861.167,722.5 811.833,722.5 762.5,722.5C 760.167,720.833 758.167,718.833 756.5,716.5 Z"/></g>
<g><path style="opacity:1" fill="#cabeae" d="M 695.5,720.5 C 696.5,720.833 697.167,721.5 697.5,722.5C 640.833,722.5 584.167,722.5 527.5,722.5C 527.5,722.167 527.5,721.833 527.5,721.5C 583.669,721.832 639.669,721.499 695.5,720.5 Z"/></g>
<g><path style="opacity:1" fill="#687076" d="M 4699.5,726.5 C 4708.79,734.618 4717.95,742.951 4727,751.5C 4735.79,743.71 4744.29,735.543 4752.5,727C 4753.5,726.333 4754.5,726.333 4755.5,727C 4758.67,730.167 4761.83,733.333 4765,736.5C 4765.67,737.5 4765.67,738.5 4765,739.5C 4756.65,748.014 4748.15,756.348 4739.5,764.5C 4748.17,773.5 4756.83,782.5 4765.5,791.5C 4761.85,795.652 4758.02,799.652 4754,803.5C 4745.32,794.652 4736.49,785.986 4727.5,777.5C 4718.5,786.167 4709.5,794.833 4700.5,803.5C 4697.18,799.682 4693.68,796.015 4690,792.5C 4689.33,791.5 4689.33,790.5 4690,789.5C 4698.35,781.319 4706.51,772.986 4714.5,764.5C 4706.01,755.514 4697.35,746.681 4688.5,738C 4692.37,734.298 4696.04,730.464 4699.5,726.5 Z"/></g>
<g><path style="opacity:1" fill="#e2d5c3" d="M 527.5,722.5 C 584.167,722.5 640.833,722.5 697.5,722.5C 711.5,735.833 725.167,749.5 738.5,763.5C 668.335,764.499 598.002,764.833 527.5,764.5C 527.5,750.5 527.5,736.5 527.5,722.5 Z"/></g>
<g><path style="opacity:1" fill="#e2d6c3" d="M 762.5,722.5 C 811.833,722.5 861.167,722.5 910.5,722.5C 910.5,746.833 910.5,771.167 910.5,795.5C 885.5,795.5 860.5,795.5 835.5,795.5C 810.833,771.5 786.5,747.167 762.5,722.5 Z"/></g>
<g><path style="opacity:1" fill="#d6c8b4" d="M 1345.5,749.5 C 1352.98,749.485 1355.81,753.152 1354,760.5C 1350.13,765.416 1345.8,765.749 1341,761.5C 1339.31,756.085 1340.81,752.085 1345.5,749.5 Z"/></g>
<g><path style="opacity:1" fill="#dcd0bd" d="M 1491.5,760.5 C 1491.5,756.167 1491.5,751.833 1491.5,747.5C 1499.67,745.831 1503.17,749.164 1502,757.5C 1499.31,761.419 1495.81,762.419 1491.5,760.5 Z"/></g>
<g><path style="opacity:1" fill="#bfac96" d="M 1491.5,747.5 C 1491.5,751.833 1491.5,756.167 1491.5,760.5C 1486.17,756.167 1486.17,751.833 1491.5,747.5 Z"/></g>
<g><path style="opacity:1" fill="#ccc5b5" d="M 738.5,763.5 C 739.5,763.833 740.167,764.5 740.5,765.5C 669.5,765.5 598.5,765.5 527.5,765.5C 527.5,765.167 527.5,764.833 527.5,764.5C 598.002,764.833 668.335,764.499 738.5,763.5 Z"/></g>
<g><path style="opacity:1" fill="#e4d9c7" d="M 527.5,765.5 C 598.5,765.5 669.5,765.5 740.5,765.5C 742.167,766.5 743.5,767.833 744.5,769.5C 672.335,770.499 600.002,770.833 527.5,770.5C 527.5,768.833 527.5,767.167 527.5,765.5 Z"/></g>
<g><path style="opacity:1" fill="#cec5b4" d="M 744.5,769.5 C 745.5,769.833 746.167,770.5 746.5,771.5C 673.5,771.5 600.5,771.5 527.5,771.5C 527.5,771.167 527.5,770.833 527.5,770.5C 600.002,770.833 672.335,770.499 744.5,769.5 Z"/></g>
<g><path style="opacity:1" fill="#e5dac8" d="M 527.5,771.5 C 600.5,771.5 673.5,771.5 746.5,771.5C 748.167,772.5 749.5,773.833 750.5,775.5C 676.335,776.499 602.002,776.833 527.5,776.5C 527.5,774.833 527.5,773.167 527.5,771.5 Z"/></g>
<g><path style="opacity:1" fill="#cec5b4" d="M 750.5,775.5 C 751.5,775.833 752.167,776.5 752.5,777.5C 677.5,777.5 602.5,777.5 527.5,777.5C 527.5,777.167 527.5,776.833 527.5,776.5C 602.002,776.833 676.335,776.499 750.5,775.5 Z"/></g>
<g><path style="opacity:1" fill="#e5dac9" d="M 527.5,777.5 C 602.5,777.5 677.5,777.5 752.5,777.5C 754.167,778.5 755.5,779.833 756.5,781.5C 680.335,782.499 604.002,782.833 527.5,782.5C 527.5,780.833 527.5,779.167 527.5,777.5 Z"/></g>
<g><path style="opacity:1" fill="#ded1be" d="M 1377.5,780.5 C 1385.1,780.334 1387.93,784.001 1386,791.5C 1383.39,794.648 1380.23,795.648 1376.5,794.5C 1376.23,789.737 1376.56,785.07 1377.5,780.5 Z"/></g>
<g><path style="opacity:1" fill="#d6c7b3" d="M 1461.5,778.5 C 1471.17,778.672 1473.84,783.172 1469.5,792C 1460.66,794.834 1456.83,791.668 1458,782.5C 1458.69,780.65 1459.86,779.316 1461.5,778.5 Z"/></g>
<g><path style="opacity:1" fill="#cfc6b7" d="M 756.5,781.5 C 757.5,781.833 758.167,782.5 758.5,783.5C 681.5,783.5 604.5,783.5 527.5,783.5C 527.5,783.167 527.5,782.833 527.5,782.5C 604.002,782.833 680.335,782.499 756.5,781.5 Z"/></g>
<g><path style="opacity:1" fill="#c8b5a0" d="M 1377.5,780.5 C 1376.56,785.07 1376.23,789.737 1376.5,794.5C 1373.38,793.275 1372.05,790.941 1372.5,787.5C 1372.25,783.756 1373.92,781.422 1377.5,780.5 Z"/></g>
<g><path style="opacity:1" fill="#e6dbc9" d="M 527.5,783.5 C 604.5,783.5 681.5,783.5 758.5,783.5C 760.167,784.5 761.5,785.833 762.5,787.5C 684.335,788.499 606.002,788.833 527.5,788.5C 527.5,786.833 527.5,785.167 527.5,783.5 Z"/></g>
<g><path style="opacity:1" fill="#d0c7b8" d="M 762.5,787.5 C 763.5,787.833 764.167,788.5 764.5,789.5C 685.5,789.5 606.5,789.5 527.5,789.5C 527.5,789.167 527.5,788.833 527.5,788.5C 606.002,788.833 684.335,788.499 762.5,787.5 Z"/></g>
<g><path style="opacity:1" fill="#e7dcca" d="M 527.5,789.5 C 606.5,789.5 685.5,789.5 764.5,789.5C 765.167,789.5 765.5,789.833 765.5,790.5C 764.209,791.473 764.209,792.473 765.5,793.5C 686.169,794.5 606.836,794.833 527.5,794.5C 527.5,792.833 527.5,791.167 527.5,789.5 Z"/></g>
<g><path style="opacity:1" fill="#d1c8b9" d="M 765.5,790.5 C 767.5,791.833 769.167,793.5 770.5,795.5C 689.5,795.5 608.5,795.5 527.5,795.5C 527.5,795.167 527.5,794.833 527.5,794.5C 606.836,794.833 686.169,794.5 765.5,793.5C 764.209,792.473 764.209,791.473 765.5,790.5 Z"/></g>
<g><path style="opacity:1" fill="#d9cbb8" d="M 1418.5,804.5 C 1418.5,800.167 1418.5,795.833 1418.5,791.5C 1426.63,789.799 1430.13,793.132 1429,801.5C 1426.31,805.419 1422.81,806.419 1418.5,804.5 Z"/></g>
<g><path style="opacity:1" fill="#e8dfcd" d="M 527.5,795.5 C 608.5,795.5 689.5,795.5 770.5,795.5C 784.5,808.833 798.167,822.5 811.5,836.5C 717.001,837.499 622.335,837.833 527.5,837.5C 527.5,823.5 527.5,809.5 527.5,795.5 Z"/></g>
<g><path style="opacity:1" fill="#bfaa94" d="M 1418.5,791.5 C 1418.5,795.833 1418.5,800.167 1418.5,804.5C 1413.17,800.167 1413.17,795.833 1418.5,791.5 Z"/></g>
<g><path style="opacity:1" fill="#e8dfce" d="M 835.5,795.5 C 860.5,795.5 885.5,795.5 910.5,795.5C 910.831,820.672 910.498,845.672 909.5,870.5C 884.833,845.5 860.167,820.5 835.5,795.5 Z"/></g>
<g><path style="opacity:1" fill="#a4a29b" d="M 910.5,520.5 C 911.832,637.334 911.832,754.334 910.5,871.5C 909.893,871.376 909.56,871.043 909.5,870.5C 910.498,845.672 910.831,820.672 910.5,795.5C 910.5,771.167 910.5,746.833 910.5,722.5C 910.5,720.5 910.5,718.5 910.5,716.5C 910.5,714.5 910.5,712.5 910.5,710.5C 910.5,708.5 910.5,706.5 910.5,704.5C 910.5,702.5 910.5,700.5 910.5,698.5C 910.5,696.5 910.5,694.5 910.5,692.5C 910.5,685.167 910.5,677.833 910.5,670.5C 910.5,663.5 910.5,656.5 910.5,649.5C 910.5,647.5 910.5,645.5 910.5,643.5C 910.5,641.5 910.5,639.5 910.5,637.5C 910.5,635.5 910.5,633.5 910.5,631.5C 910.5,629.5 910.5,627.5 910.5,625.5C 910.5,623.5 910.5,621.5 910.5,619.5C 910.5,607.167 910.5,594.833 910.5,582.5C 910.5,580.5 910.5,578.5 910.5,576.5C 910.5,574.5 910.5,572.5 910.5,570.5C 910.5,568.5 910.5,566.5 910.5,564.5C 910.5,562.5 910.5,560.5 910.5,558.5C 910.5,556.5 910.5,554.5 910.5,552.5C 910.5,548.833 910.5,545.167 910.5,541.5C 910.5,538.5 910.5,535.5 910.5,532.5C 910.5,530.167 910.5,527.833 910.5,525.5C 910.5,523.833 910.5,522.167 910.5,520.5 Z"/></g>
<g><path style="opacity:1" fill="#d4cabe" d="M 811.5,836.5 C 812.5,836.833 813.167,837.5 813.5,838.5C 718.167,838.5 622.833,838.5 527.5,838.5C 527.5,838.167 527.5,837.833 527.5,837.5C 622.335,837.833 717.001,837.499 811.5,836.5 Z"/></g>
<g><path style="opacity:1" fill="#eae2d0" d="M 527.5,838.5 C 622.833,838.5 718.167,838.5 813.5,838.5C 815.167,839.5 816.5,840.833 817.5,842.5C 721.001,843.499 624.335,843.833 527.5,843.5C 527.5,841.833 527.5,840.167 527.5,838.5 Z"/></g>
<g><path style="opacity:1" fill="#d3ccba" d="M 817.5,842.5 C 818.5,842.833 819.167,843.5 819.5,844.5C 722.167,844.5 624.833,844.5 527.5,844.5C 527.5,844.167 527.5,843.833 527.5,843.5C 624.335,843.833 721.001,843.499 817.5,842.5 Z"/></g>
<g><path style="opacity:1" fill="#ebe3d1" d="M 527.5,844.5 C 624.833,844.5 722.167,844.5 819.5,844.5C 821.167,845.5 822.5,846.833 823.5,848.5C 725.001,849.499 626.335,849.833 527.5,849.5C 527.5,847.833 527.5,846.167 527.5,844.5 Z"/></g>
<g><path style="opacity:1" fill="#d5cbbf" d="M 823.5,848.5 C 824.5,848.833 825.167,849.5 825.5,850.5C 726.167,850.5 626.833,850.5 527.5,850.5C 527.5,850.167 527.5,849.833 527.5,849.5C 626.335,849.833 725.001,849.499 823.5,848.5 Z"/></g>
<g><path style="opacity:1" fill="#ebe2d1" d="M 527.5,850.5 C 626.833,850.5 726.167,850.5 825.5,850.5C 827.167,851.5 828.5,852.833 829.5,854.5C 729.001,855.499 628.335,855.833 527.5,855.5C 527.5,853.833 527.5,852.167 527.5,850.5 Z"/></g>
<g><path style="opacity:1" fill="#d3cdbd" d="M 829.5,854.5 C 830.5,854.833 831.167,855.5 831.5,856.5C 730.167,856.5 628.833,856.5 527.5,856.5C 527.5,856.167 527.5,855.833 527.5,855.5C 628.335,855.833 729.001,855.499 829.5,854.5 Z"/></g>
<g><path style="opacity:1" fill="#ebe3d1" d="M 527.5,856.5 C 628.833,856.5 730.167,856.5 831.5,856.5C 833.167,857.5 834.5,858.833 835.5,860.5C 733.001,861.499 630.335,861.833 527.5,861.5C 527.5,859.833 527.5,858.167 527.5,856.5 Z"/></g>
<g><path style="opacity:1" fill="#d4cdbd" d="M 835.5,860.5 C 836.5,860.833 837.167,861.5 837.5,862.5C 734.167,862.5 630.833,862.5 527.5,862.5C 527.5,862.167 527.5,861.833 527.5,861.5C 630.335,861.833 733.001,861.499 835.5,860.5 Z"/></g>
<g><path style="opacity:1" fill="#ece4d3" d="M 527.5,862.5 C 630.833,862.5 734.167,862.5 837.5,862.5C 851.167,875.5 864.5,888.833 877.5,902.5C 761.001,903.5 644.335,903.833 527.5,903.5C 527.5,889.833 527.5,876.167 527.5,862.5 Z"/></g>
<g><path style="opacity:1" fill="#aaaba5" d="M 877.5,902.5 C 878.289,902.783 878.956,903.283 879.5,904C 761.999,904.833 644.666,904.666 527.5,903.5C 644.335,903.833 761.001,903.5 877.5,902.5 Z"/></g>
<g><path style="opacity:1" fill="#e5dbc9" d="M 4527.5,1235.5 C 4519.42,1244.25 4511.08,1252.58 4502.5,1260.5C 4497.31,1259.24 4492.31,1257.41 4487.5,1255C 4457.21,1238.03 4440.71,1212.2 4438,1177.5C 4437.67,1159.83 4437.33,1142.17 4437,1124.5C 4436,1117.84 4434,1111.51 4431,1105.5C 4425.67,1098.17 4420.33,1090.83 4415,1083.5C 4414.3,1080.07 4414.63,1076.74 4416,1073.5C 4421.23,1064.87 4428.4,1062.7 4437.5,1067C 4454.89,1082.62 4464.73,1102.12 4467,1125.5C 4467.33,1144.17 4467.67,1162.83 4468,1181.5C 4469.67,1189.52 4472.34,1197.18 4476,1204.5C 4488.02,1223.34 4505.18,1233.68 4527.5,1235.5 Z"/></g>
<g><path style="opacity:1" fill="#e0d3c0" d="M -0.5,1155.5 C 3.41037,1156.85 7.41037,1158.02 11.5,1159C 30.8333,1159.33 50.1667,1159.67 69.5,1160C 81.4257,1161.48 92.759,1164.81 103.5,1170C 131.753,1186.08 147.753,1210.25 151.5,1242.5C 142.925,1252.58 133.758,1262.25 124,1271.5C 123.828,1264.65 123.328,1257.99 122.5,1251.5C 120.104,1217.93 102.437,1197.43 69.5,1190C 50.1667,1189.67 30.8333,1189.33 11.5,1189C 7.35413,1188.67 3.35413,1187.84 -0.5,1186.5C -0.5,1176.17 -0.5,1165.83 -0.5,1155.5 Z"/></g>
<g><path style="opacity:1" fill="#e2d5c2" d="M 4527.5,1235.5 C 4544.5,1235.33 4561.5,1235.5 4578.5,1236C 4593.74,1237.35 4607.41,1242.52 4619.5,1251.5C 4612.79,1258.88 4605.79,1265.88 4598.5,1272.5C 4590.31,1268.45 4581.64,1265.95 4572.5,1265C 4553.83,1264.67 4535.17,1264.33 4516.5,1264C 4511.48,1263.75 4506.82,1262.58 4502.5,1260.5C 4511.08,1252.58 4519.42,1244.25 4527.5,1235.5 Z"/></g>
<g><path style="opacity:1" fill="#dccebb" d="M 151.5,1242.5 C 152.332,1260.33 152.832,1278.33 153,1296.5C 155.365,1317 165.199,1332.66 182.5,1343.5C 182.414,1344.5 182.748,1345.33 183.5,1346C 176.911,1353.09 169.911,1359.59 162.5,1365.5C 139.69,1349.47 126.523,1327.47 123,1299.5C 122.5,1283.5 122.333,1267.5 122.5,1251.5C 123.328,1257.99 123.828,1264.65 124,1271.5C 133.758,1262.25 142.925,1252.58 151.5,1242.5 Z"/></g>
<g><path style="opacity:1" fill="#697076" d="M 861.5,1284.5 C 885.698,1282.17 901.531,1292.51 909,1315.5C 912.651,1340.38 902.818,1357.21 879.5,1366C 854.236,1368.78 838.069,1357.95 831,1333.5C 828.513,1309.12 838.68,1292.78 861.5,1284.5 Z"/></g>
<g><path style="opacity:1" fill="#687076" d="M 1009.5,1284.5 C 1033.2,1282.26 1049.03,1292.26 1057,1314.5C 1060.42,1333.05 1054.92,1348.22 1040.5,1360C 1020.42,1371.04 1002.58,1368.2 987,1351.5C 973.504,1329.53 976.004,1309.7 994.5,1292C 999.313,1288.93 1004.31,1286.43 1009.5,1284.5 Z"/></g>
<g><path style="opacity:1" fill="#687076" d="M 1157.5,1284.5 C 1192.08,1283.92 1207.91,1300.92 1205,1335.5C 1197.54,1358.65 1181.71,1368.81 1157.5,1366C 1134.58,1358.02 1124.41,1341.85 1127,1317.5C 1131.17,1300.83 1141.34,1289.83 1157.5,1284.5 Z"/></g>
<g><path style="opacity:1" fill="#2d3134" d="M 863.5,1299.5 C 885.438,1298.27 895.938,1308.6 895,1330.5C 888.473,1350.01 875.64,1355.84 856.5,1348C 840.93,1333.65 840.597,1318.98 855.5,1304C 858.354,1302.6 861.02,1301.1 863.5,1299.5 Z"/></g>
<g><path style="opacity:1" fill="#2d3134" d="M 1011.5,1299.5 C 1025.6,1297.63 1035.77,1302.96 1042,1315.5C 1045.9,1330.83 1041.07,1342.33 1027.5,1350C 1010.85,1354.59 999.68,1348.76 994,1332.5C 991.464,1316.9 997.298,1305.9 1011.5,1299.5 Z"/></g>
<g><path style="opacity:1" fill="#2d3134" d="M 1159.5,1299.5 C 1182,1298.5 1192.5,1309.16 1191,1331.5C 1183.5,1351 1170.33,1356.17 1151.5,1347C 1140.38,1335.92 1138.55,1323.42 1146,1309.5C 1149.77,1305.05 1154.27,1301.71 1159.5,1299.5 Z"/></g>
<g><path style="opacity:1" fill="#ddd0bc" d="M 4619.5,1251.5 C 4642.61,1267.03 4656.11,1288.69 4660,1316.5C 4660.33,1335.5 4660.67,1354.5 4661,1373.5C 4664.05,1393.29 4673.89,1408.62 4690.5,1419.5C 4690.66,1420.87 4690.49,1422.21 4690,1423.5C 4683.96,1429.7 4677.8,1435.7 4671.5,1441.5C 4646.93,1424.71 4633.43,1401.37 4631,1371.5C 4630.94,1351.46 4630.27,1331.46 4629,1311.5C 4623.86,1294.53 4613.69,1281.53 4598.5,1272.5C 4605.79,1265.88 4612.79,1258.88 4619.5,1251.5 Z"/></g>
<g><path style="opacity:1" fill="#d8c8b4" d="M 182.5,1343.5 C 189.643,1348.6 197.643,1351.44 206.5,1352C 224.167,1352.33 241.833,1352.67 259.5,1353C 273.357,1354 286.357,1357.84 298.5,1364.5C 293.862,1370.68 288.195,1376.85 281.5,1383C 283.332,1383.75 284.999,1384.75 286.5,1386C 284.107,1385.5 281.941,1385 280,1384.5C 279.184,1385.82 278.017,1386.49 276.5,1386.5C 271.641,1384.87 266.641,1383.7 261.5,1383C 242.167,1382.67 222.833,1382.33 203.5,1382C 188.114,1380.29 174.448,1374.79 162.5,1365.5C 169.911,1359.59 176.911,1353.09 183.5,1346C 182.748,1345.33 182.414,1344.5 182.5,1343.5 Z"/></g>
<g><path style="opacity:1" fill="#d4c2ad" d="M 298.5,1364.5 C 324.889,1380.07 340.389,1403.07 345,1433.5C 345.5,1449.5 345.667,1465.5 345.5,1481.5C 337.702,1488.8 330.035,1496.3 322.5,1504C 321.207,1504.49 319.873,1504.66 318.5,1504.5C 316.967,1495.08 315.967,1485.58 315.5,1476C 316.522,1463.84 316.689,1451.68 316,1439.5C 312.091,1414.78 298.924,1397.11 276.5,1386.5C 278.017,1386.49 279.184,1385.82 280,1384.5C 281.941,1385 284.107,1385.5 286.5,1386C 284.999,1384.75 283.332,1383.75 281.5,1383C 288.195,1376.85 293.862,1370.68 298.5,1364.5 Z"/></g>
<g><path style="opacity:1" fill="#d9c9b5" d="M 4690.5,1419.5 C 4698.34,1423.71 4706.67,1426.54 4715.5,1428C 4733.5,1428.33 4751.5,1428.67 4769.5,1429C 4775.96,1429.59 4782.29,1430.76 4788.5,1432.5C 4780.7,1440.8 4772.7,1448.96 4764.5,1457C 4747.84,1457.5 4731.17,1457.67 4714.5,1457.5C 4698.28,1456.87 4683.94,1451.54 4671.5,1441.5C 4677.8,1435.7 4683.96,1429.7 4690,1423.5C 4690.49,1422.21 4690.66,1420.87 4690.5,1419.5 Z"/></g>
<g><path style="opacity:1" fill="#d3c2ad" d="M 4788.5,1432.5 C 4795.49,1434.49 4802.15,1437.32 4808.5,1441C 4833.4,1456.89 4848.23,1479.39 4853,1508.5C 4853.5,1524.83 4853.67,1541.16 4853.5,1557.5C 4844.87,1565.63 4836.37,1573.96 4828,1582.5C 4827.72,1581.58 4827.22,1580.92 4826.5,1580.5C 4825.96,1577.19 4825.46,1573.85 4825,1570.5C 4824.89,1549.47 4824.22,1528.47 4823,1507.5C 4815.11,1480.95 4797.61,1464.78 4770.5,1459C 4751.66,1458.83 4733,1458.33 4714.5,1457.5C 4731.17,1457.67 4747.84,1457.5 4764.5,1457C 4772.7,1448.96 4780.7,1440.8 4788.5,1432.5 Z"/></g>
<g><path style="opacity:1" fill="#cfbca6" d="M 345.5,1481.5 C 346.839,1512.21 361.839,1532.88 390.5,1543.5C 385.452,1549.05 380.119,1554.55 374.5,1560C 374.833,1560.33 375.167,1560.67 375.5,1561C 372.562,1562.81 369.562,1564.31 366.5,1565.5C 341.603,1552.26 325.603,1531.93 318.5,1504.5C 319.873,1504.66 321.207,1504.49 322.5,1504C 330.035,1496.3 337.702,1488.8 345.5,1481.5 Z"/></g>
<g><path style="opacity:1" fill="#ccb8a0" d="M 390.5,1543.5 C 393.166,1543.93 395.832,1544.43 398.5,1545C 415.833,1545.33 433.167,1545.67 450.5,1546C 456.222,1546.6 461.889,1547.44 467.5,1548.5C 458.194,1557.14 449.194,1566.14 440.5,1575.5C 425.496,1575.67 410.496,1575.5 395.5,1575C 385.111,1573.7 375.444,1570.54 366.5,1565.5C 369.562,1564.31 372.562,1562.81 375.5,1561C 375.167,1560.67 374.833,1560.33 374.5,1560C 380.119,1554.55 385.452,1549.05 390.5,1543.5 Z"/></g>
<g><path style="opacity:1" fill="#cfbda7" d="M 4853.5,1557.5 C 4854.35,1584.89 4867.02,1604.55 4891.5,1616.5C 4891.14,1618.91 4892.14,1620.41 4894.5,1621C 4894.87,1622.47 4894.37,1623.97 4893,1625.5C 4888.83,1629 4885,1632.83 4881.5,1637C 4880.21,1637.49 4878.87,1637.66 4877.5,1637.5C 4877.63,1639.29 4877.3,1640.96 4876.5,1642.5C 4850.6,1629.27 4833.93,1608.6 4826.5,1580.5C 4827.22,1580.92 4827.72,1581.58 4828,1582.5C 4836.37,1573.96 4844.87,1565.63 4853.5,1557.5 Z"/></g>
<g><path style="opacity:1" fill="#c8b29a" d="M 467.5,1548.5 C 472.572,1549.69 477.572,1551.19 482.5,1553C 519.795,1571.14 538.461,1600.97 538.5,1642.5C 528.833,1651.83 519.167,1661.17 509.5,1670.5C 509.899,1655.12 509.399,1639.79 508,1624.5C 497.481,1591.83 474.981,1575.5 440.5,1575.5C 449.194,1566.14 458.194,1557.14 467.5,1548.5 Z"/></g>
<g><path style="opacity:1" fill="#ccb7a0" d="M 4891.5,1616.5 C 4897.15,1619.25 4903.15,1620.75 4909.5,1621C 4927.5,1621.33 4945.5,1621.67 4963.5,1622C 4976.58,1623.52 4988.91,1627.35 5000.5,1633.5C 5000.5,1646.17 5000.5,1658.83 5000.5,1671.5C 4992.07,1662.28 4981.74,1656.11 4969.5,1653C 4946.17,1651.98 4922.84,1650.98 4899.5,1650C 4891.44,1648.59 4883.77,1646.09 4876.5,1642.5C 4877.3,1640.96 4877.63,1639.29 4877.5,1637.5C 4878.87,1637.66 4880.21,1637.49 4881.5,1637C 4885,1632.83 4888.83,1629 4893,1625.5C 4894.37,1623.97 4894.87,1622.47 4894.5,1621C 4892.14,1620.41 4891.14,1618.91 4891.5,1616.5 Z"/></g>
<g><path style="opacity:1" fill="#c2ab93" d="M 538.5,1642.5 C 538.27,1657.52 538.603,1672.52 539.5,1687.5C 539.5,1688.83 539.5,1690.17 539.5,1691.5C 538.5,1691.5 537.5,1691.5 536.5,1691.5C 536.703,1693.39 536.037,1694.89 534.5,1696C 536.592,1696.95 536.925,1698.29 535.5,1700C 536.167,1701 536.833,1702 537.5,1703C 534.183,1703.5 530.85,1703.67 527.5,1703.5C 527.5,1706.17 527.5,1708.83 527.5,1711.5C 523.766,1711.32 520.099,1711.66 516.5,1712.5C 510.911,1699.16 508.577,1685.16 509.5,1670.5C 519.167,1661.17 528.833,1651.83 538.5,1642.5 Z"/></g>
<g><path style="opacity:1" fill="#bba58e" d="M 539.5,1687.5 C 541.27,1694.29 543.77,1700.96 547,1707.5C 551.667,1713.5 556.333,1719.5 561,1725.5C 561.667,1728.83 561.667,1732.17 561,1735.5C 555.823,1746.09 547.99,1748.59 537.5,1743C 528.302,1734.31 521.302,1724.14 516.5,1712.5C 520.099,1711.66 523.766,1711.32 527.5,1711.5C 527.5,1708.83 527.5,1706.17 527.5,1703.5C 530.85,1703.67 534.183,1703.5 537.5,1703C 536.833,1702 536.167,1701 535.5,1700C 536.925,1698.29 536.592,1696.95 534.5,1696C 536.037,1694.89 536.703,1693.39 536.5,1691.5C 537.5,1691.5 538.5,1691.5 539.5,1691.5C 539.5,1690.17 539.5,1688.83 539.5,1687.5 Z"/></g>
<g><path style="opacity:1" fill="#697076" d="M 4685.5,1825.5 C 4703.68,1826.84 4711.84,1836.5 4710,1854.5C 4705.65,1867.82 4696.48,1873.32 4682.5,1871C 4668.35,1866.22 4662.85,1856.39 4666,1841.5C 4669.72,1832.59 4676.22,1827.26 4685.5,1825.5 Z"/></g>
<g><path style="opacity:1" fill="#697076" d="M 4527.5,1827.5 C 4545.14,1824.83 4555.47,1832.16 4558.5,1849.5C 4555.99,1866.93 4545.99,1874.43 4528.5,1872C 4513.63,1865.08 4509.13,1853.92 4515,1838.5C 4518.13,1833.54 4522.29,1829.87 4527.5,1827.5 Z"/></g>
<g><path style="opacity:1" fill="#697076" d="M 4379.5,1827.5 C 4397.4,1828.32 4405.9,1837.66 4405,1855.5C 4400.38,1869.9 4390.54,1875.73 4375.5,1873C 4358.69,1864.22 4355.19,1851.72 4365,1835.5C 4369.13,1831.35 4373.97,1828.69 4379.5,1827.5 Z"/></g>
<g><path style="opacity:1" fill="#697076" d="M 4222.5,1829.5 C 4242.79,1827.29 4252.62,1836.29 4252,1856.5C 4246.08,1872.88 4234.91,1878.04 4218.5,1872C 4206.47,1863.56 4203.63,1852.73 4210,1839.5C 4213.51,1835.13 4217.68,1831.8 4222.5,1829.5 Z"/></g>
<g><path style="opacity:1" fill="#cebca6" d="M 3851.5,1907.5 C 3817.5,1907.5 3783.5,1907.5 3749.5,1907.5C 3776.84,1885.44 3808.17,1875.28 3843.5,1877C 3855.11,1882.39 3858.94,1891.23 3855,1903.5C 3854.05,1905.09 3852.88,1906.43 3851.5,1907.5 Z"/></g>
<g><path style="opacity:1" fill="#d3c2ac" d="M 3749.5,1907.5 C 3783.5,1907.5 3817.5,1907.5 3851.5,1907.5C 3849.93,1910.23 3847.6,1912.06 3844.5,1913C 3817.43,1912.59 3793.43,1920.76 3772.5,1937.5C 3771.91,1936.85 3771.24,1936.18 3770.5,1935.5C 3754.85,1934.5 3739.18,1934.17 3723.5,1934.5C 3730.79,1924.21 3739.46,1915.21 3749.5,1907.5 Z"/></g>
<g><path style="opacity:1" fill="#d7c8b4" d="M 3723.5,1934.5 C 3739.18,1934.17 3754.85,1934.5 3770.5,1935.5C 3771.24,1936.18 3771.91,1936.85 3772.5,1937.5C 3761.35,1946.85 3752.35,1957.85 3745.5,1970.5C 3745.2,1969.85 3744.86,1969.18 3744.5,1968.5C 3731.52,1967.5 3718.52,1967.17 3705.5,1967.5C 3710.22,1955.73 3716.22,1944.73 3723.5,1934.5 Z"/></g>
<g><path style="opacity:1" fill="#ddd0bd" d="M 3705.5,1967.5 C 3718.52,1967.17 3731.52,1967.5 3744.5,1968.5C 3744.86,1969.18 3745.2,1969.85 3745.5,1970.5C 3736.95,1987.06 3733.28,2004.73 3734.5,2023.5C 3733.53,2021.39 3733.2,2019.06 3733.5,2016.5C 3721.17,2016.5 3708.83,2016.5 3696.5,2016.5C 3697.06,1999.7 3700.06,1983.37 3705.5,1967.5 Z"/></g>
<g><path style="opacity:1" fill="#697076" d="M 4683.5,1986.5 C 4702.7,1986.86 4711.53,1996.53 4710,2015.5C 4704.3,2030.1 4693.8,2035.27 4678.5,2031C 4666.58,2023.59 4662.75,2013.09 4667,1999.5C 4670.97,1993.01 4676.47,1988.68 4683.5,1986.5 Z"/></g>
<g><path style="opacity:1" fill="#697076" d="M 4530.5,1987.5 C 4549.11,1987.03 4558.28,1996.03 4558,2014.5C 4553.82,2028.84 4544.32,2035.01 4529.5,2033C 4513.85,2026.53 4509.02,2015.36 4515,1999.5C 4518.66,1993.43 4523.83,1989.43 4530.5,1987.5 Z"/></g>
<g><path style="opacity:1" fill="#697076" d="M 4377.5,1988.5 C 4396.17,1988 4405.34,1997 4405,2015.5C 4400.89,2029.81 4391.39,2035.98 4376.5,2034C 4363.42,2028.92 4357.92,2019.42 4360,2005.5C 4363.11,1996.89 4368.94,1991.22 4377.5,1988.5 Z"/></g>
<g><path style="opacity:1" fill="#697076" d="M 4224.5,1989.5 C 4243.69,1989.19 4252.86,1998.53 4252,2017.5C 4247.66,2031.59 4238.16,2037.43 4223.5,2035C 4210.97,2030.11 4205.47,2020.94 4207,2007.5C 4209.68,1998.32 4215.52,1992.32 4224.5,1989.5 Z"/></g>
<g><path style="opacity:1" fill="#ebe4d2" d="M 357.5,2119.5 C 357.657,2120.87 357.49,2122.21 357,2123.5C 334.412,2100.91 311.412,2077.91 288,2054.5C 288.347,2052.39 288.18,2050.39 287.5,2048.5C 292.268,2039.12 299.935,2035.62 310.5,2038C 314.44,2039.89 317.94,2042.39 321,2045.5C 340.878,2066.26 353.044,2090.93 357.5,2119.5 Z"/></g>
<g><path style="opacity:1" fill="#e5dbc9" d="M 3696.5,2016.5 C 3708.83,2016.5 3721.17,2016.5 3733.5,2016.5C 3733.2,2019.06 3733.53,2021.39 3734.5,2023.5C 3737.21,2056.93 3751.88,2083.6 3778.5,2103.5C 3760.99,2103.17 3743.66,2103.5 3726.5,2104.5C 3711.31,2085.12 3701.81,2063.12 3698,2038.5C 3697.17,2031.19 3696.67,2023.85 3696.5,2016.5 Z"/></g>
<g><path style="opacity:1" fill="#e8e0ce" d="M 287.5,2048.5 C 288.18,2050.39 288.347,2052.39 288,2054.5C 311.412,2077.91 334.412,2100.91 357,2123.5C 357.49,2122.21 357.657,2120.87 357.5,2119.5C 360.665,2140.19 359.832,2160.85 355,2181.5C 353.161,2188.2 350.661,2194.53 347.5,2200.5C 338.903,2190.4 329.736,2180.73 320,2171.5C 319.51,2170.21 319.343,2168.87 319.5,2167.5C 327.144,2128.61 316.978,2095.27 289,2067.5C 285.044,2061.3 284.544,2054.97 287.5,2048.5 Z"/></g>
<g><path style="opacity:1" fill="#e9e1d0" d="M 3778.5,2103.5 C 3798.47,2116.54 3820.47,2123.04 3844.5,2123C 3858.4,2129.96 3861.23,2140.13 3853,2153.5C 3846.97,2158.59 3839.97,2160.59 3832,2159.5C 3788.42,2156.8 3753.26,2138.47 3726.5,2104.5C 3743.66,2103.5 3760.99,2103.17 3778.5,2103.5 Z"/></g>
<g><path style="opacity:1" fill="#697076" d="M 4529.5,2148.5 C 4548.67,2147.51 4558.17,2156.51 4558,2175.5C 4553.82,2189.66 4544.32,2195.82 4529.5,2194C 4516.45,2189.41 4510.95,2180.24 4513,2166.5C 4515.58,2157.75 4521.08,2151.75 4529.5,2148.5 Z"/></g>
<g><path style="opacity:1" fill="#697076" d="M 4682.5,2147.5 C 4695.75,2146.03 4704.91,2151.37 4710,2163.5C 4712.81,2179.07 4706.64,2188.9 4691.5,2193C 4678.55,2194.38 4670.05,2188.88 4666,2176.5C 4663.75,2162.33 4669.25,2152.66 4682.5,2147.5 Z"/></g>
<g><path style="opacity:1" fill="#697076" d="M 4376.5,2149.5 C 4396.17,2148.67 4405.67,2158 4405,2177.5C 4400.34,2191.09 4390.84,2196.92 4376.5,2195C 4361.41,2188.32 4356.58,2177.16 4362,2161.5C 4365.54,2155.78 4370.37,2151.78 4376.5,2149.5 Z"/></g>
<g><path style="opacity:1" fill="#697076" d="M 4223.5,2150.5 C 4237.4,2148.92 4246.9,2154.58 4252,2167.5C 4253.34,2187.16 4244.17,2196.66 4224.5,2196C 4211.38,2191.53 4205.55,2182.37 4207,2168.5C 4209.62,2159.72 4215.12,2153.72 4223.5,2150.5 Z"/></g>
<g><path style="opacity:1" fill="#e2d6c4" d="M 319.5,2167.5 C 319.343,2168.87 319.51,2170.21 320,2171.5C 329.736,2180.73 338.903,2190.4 347.5,2200.5C 339.107,2220.9 326.44,2238.24 309.5,2252.5C 300.421,2244.93 291.755,2236.76 283.5,2228C 284.167,2226 285.5,2224.67 287.5,2224C 286.944,2223.62 286.611,2223.12 286.5,2222.5C 302.869,2207.43 313.869,2189.1 319.5,2167.5 Z"/></g>
<g><path style="opacity:1" fill="#cfbda7" d="M 137.5,2214.5 C 135.25,2214.18 133.25,2214.68 131.5,2216C 152.509,2237.04 173.509,2258.04 194.5,2279C 196.768,2279.09 198.268,2277.92 199,2275.5C 201.779,2278.95 205.112,2281.62 209,2283.5C 212.014,2280.73 214.514,2281.23 216.5,2285C 220.486,2285.5 224.486,2285.67 228.5,2285.5C 183.544,2288.68 145.378,2274.01 114,2241.5C 108.396,2228.55 111.896,2219.05 124.5,2213C 129.136,2212.06 133.469,2212.56 137.5,2214.5 Z"/></g>
<g><path style="opacity:1" fill="#d5c4b0" d="M 137.5,2214.5 C 138.922,2214.71 140.255,2215.21 141.5,2216C 170.837,2244.64 205.504,2254.14 245.5,2244.5C 245.414,2245.5 245.748,2246.33 246.5,2247C 245.24,2248.11 244.073,2248.28 243,2247.5C 242.333,2248.17 242.333,2248.83 243,2249.5C 251.754,2258.76 260.921,2267.43 270.5,2275.5C 257.252,2281.49 243.252,2284.82 228.5,2285.5C 224.486,2285.67 220.486,2285.5 216.5,2285C 214.514,2281.23 212.014,2280.73 209,2283.5C 205.112,2281.62 201.779,2278.95 199,2275.5C 198.268,2277.92 196.768,2279.09 194.5,2279C 173.509,2258.04 152.509,2237.04 131.5,2216C 133.25,2214.68 135.25,2214.18 137.5,2214.5 Z"/></g>
<g><path style="opacity:1" fill="#dcceba" d="M 286.5,2222.5 C 286.611,2223.12 286.944,2223.62 287.5,2224C 285.5,2224.67 284.167,2226 283.5,2228C 291.755,2236.76 300.421,2244.93 309.5,2252.5C 297.947,2262.45 284.947,2270.12 270.5,2275.5C 260.921,2267.43 251.754,2258.76 243,2249.5C 242.333,2248.83 242.333,2248.17 243,2247.5C 244.073,2248.28 245.24,2248.11 246.5,2247C 245.748,2246.33 245.414,2245.5 245.5,2244.5C 260.77,2240.03 274.437,2232.7 286.5,2222.5 Z"/></g>
<g><path style="opacity:1" fill="#697076" d="M 4681.5,2308.5 C 4702.33,2307.17 4711.83,2316.83 4710,2337.5C 4705.39,2349.73 4696.55,2355.23 4683.5,2354C 4666.81,2347.79 4661.65,2336.29 4668,2319.5C 4671.67,2314.76 4676.17,2311.09 4681.5,2308.5 Z"/></g>
<g><path style="opacity:1" fill="#697076" d="M 4528.5,2309.5 C 4545.71,2307.59 4555.71,2315.09 4558.5,2332C 4555.6,2349.91 4545.27,2357.24 4527.5,2354C 4512.7,2346.21 4508.86,2334.71 4516,2319.5C 4519.49,2315.16 4523.66,2311.83 4528.5,2309.5 Z"/></g>
<g><path style="opacity:1" fill="#697076" d="M 4375.5,2310.5 C 4392.89,2308.42 4402.89,2315.92 4405.5,2333C 4404.07,2348.07 4395.73,2355.9 4380.5,2356.5C 4363.55,2352.27 4357.05,2341.6 4361,2324.5C 4364.41,2318.26 4369.24,2313.59 4375.5,2310.5 Z"/></g>
<g><path style="opacity:1" fill="#697076" d="M 4223.5,2311.5 C 4236.02,2309.68 4245.19,2314.34 4251,2325.5C 4254.47,2348.37 4244.64,2358.53 4221.5,2356C 4206.51,2347.52 4203.01,2335.69 4211,2320.5C 4214.65,2316.61 4218.82,2313.61 4223.5,2311.5 Z"/></g>
<g><path style="opacity:1" fill="#697076" d="M 4681.5,2469.5 C 4705.48,2469.15 4714.32,2480.49 4708,2503.5C 4701.36,2513.27 4692.19,2516.77 4680.5,2514C 4666.08,2506.74 4661.91,2495.57 4668,2480.5C 4671.34,2475.27 4675.84,2471.6 4681.5,2469.5 Z"/></g>
<g><path style="opacity:1" fill="#697076" d="M 4528.5,2470.5 C 4547.66,2468.83 4557.49,2477.5 4558,2496.5C 4552.28,2513.94 4540.78,2519.44 4523.5,2513C 4513.05,2505.58 4509.88,2495.75 4514,2483.5C 4517.33,2477.43 4522.16,2473.1 4528.5,2470.5 Z"/></g>
<g><path style="opacity:1" fill="#697076" d="M 4375.5,2471.5 C 4389.96,2469.31 4399.79,2474.97 4405,2488.5C 4407.06,2502.22 4401.56,2511.39 4388.5,2516C 4368.21,2518.04 4358.71,2508.88 4360,2488.5C 4362.94,2480.73 4368.1,2475.07 4375.5,2471.5 Z"/></g>
<g><path style="opacity:1" fill="#697076" d="M 4222.5,2472.5 C 4245.12,2470.95 4254.62,2481.29 4251,2503.5C 4245.14,2515.25 4235.64,2519.75 4222.5,2517C 4208.24,2510.21 4203.74,2499.38 4209,2484.5C 4212.45,2479.21 4216.95,2475.21 4222.5,2472.5 Z"/></g>
<g><path style="opacity:1" fill="#e2d9c7" d="M 3620.5,2662.5 C 3620.5,2669.83 3620.5,2677.17 3620.5,2684.5C 3618.5,2684.5 3616.5,2684.5 3614.5,2684.5C 3613.88,2681.92 3613.55,2679.25 3613.5,2676.5C 3613.57,2671.71 3614.24,2667.04 3615.5,2662.5C 3617.17,2662.5 3618.83,2662.5 3620.5,2662.5 Z"/></g>
<g><path style="opacity:1" fill="#ded4c2" d="M 3566.5,2661.5 C 3566.5,2668.5 3566.5,2675.5 3566.5,2682.5C 3565.38,2683.16 3564.05,2683.49 3562.5,2683.5C 3560.12,2683.64 3558.12,2682.97 3556.5,2681.5C 3556.5,2675.17 3556.5,2668.83 3556.5,2662.5C 3558.12,2661.03 3560.12,2660.36 3562.5,2660.5C 3564.05,2660.51 3565.38,2660.84 3566.5,2661.5 Z"/></g>
<g><path style="opacity:1" fill="#cebca6" d="M 3620.5,2662.5 C 3628.45,2666.53 3630.29,2672.53 3626,2680.5C 3624.23,2681.97 3622.39,2683.3 3620.5,2684.5C 3620.5,2677.17 3620.5,2669.83 3620.5,2662.5 Z"/></g>
<g><path style="opacity:1" fill="#bfab95" d="M 3556.5,2662.5 C 3556.5,2668.83 3556.5,2675.17 3556.5,2681.5C 3550.17,2677.04 3549.01,2671.37 3553,2664.5C 3553.82,2663.18 3554.98,2662.51 3556.5,2662.5 Z"/></g>
<g><path style="opacity:1" fill="#cebba5" d="M 3566.5,2661.5 C 3571.28,2663.03 3573.61,2666.37 3573.5,2671.5C 3573.92,2677 3571.59,2680.67 3566.5,2682.5C 3566.5,2675.5 3566.5,2668.5 3566.5,2661.5 Z"/></g>
<g><path style="opacity:1" fill="#ccbca9" d="M 3620.5,2662.5 C 3618.83,2662.5 3617.17,2662.5 3615.5,2662.5C 3614.24,2667.04 3613.57,2671.71 3613.5,2676.5C 3613.55,2679.25 3613.88,2681.92 3614.5,2684.5C 3606.33,2682.13 3603.5,2676.8 3606,2668.5C 3609.31,2662.46 3614.15,2660.46 3620.5,2662.5 Z"/></g>
<g><path style="opacity:1" fill="#dacebb" d="M 3662.5,2734.5 C 3662.5,2728.83 3662.5,2723.17 3662.5,2717.5C 3669.08,2712.89 3674.92,2713.89 3680,2720.5C 3682.55,2732.61 3677.72,2738.11 3665.5,2737C 3664.06,2736.62 3663.06,2735.79 3662.5,2734.5 Z"/></g>
<g><path style="opacity:1" fill="#b8a38d" d="M 3662.5,2717.5 C 3662.5,2723.17 3662.5,2728.83 3662.5,2734.5C 3657.61,2730.94 3656.45,2726.27 3659,2720.5C 3659.76,2718.94 3660.93,2717.94 3662.5,2717.5 Z"/></g>
<g><path style="opacity:1" fill="#ded4c2" d="M 3513.5,2713.5 C 3513.5,2720.83 3513.5,2728.17 3513.5,2735.5C 3510.01,2736.92 3506.68,2736.59 3503.5,2734.5C 3503.5,2728.17 3503.5,2721.83 3503.5,2715.5C 3505.08,2713.91 3507.08,2712.91 3509.5,2712.5C 3510.74,2713.25 3512.07,2713.58 3513.5,2713.5 Z"/></g>
<g><path style="opacity:1" fill="#d0bda7" d="M 3513.5,2713.5 C 3518.75,2715.5 3521.09,2719.33 3520.5,2725C 3520.8,2730.21 3518.46,2733.71 3513.5,2735.5C 3513.5,2728.17 3513.5,2720.83 3513.5,2713.5 Z"/></g>
<g><path style="opacity:1" fill="#dcd1bf" d="M 3567.5,2715.5 C 3567.5,2722.5 3567.5,2729.5 3567.5,2736.5C 3564.6,2737.78 3561.6,2737.78 3558.5,2736.5C 3557.62,2729.88 3557.29,2723.21 3557.5,2716.5C 3560.71,2714.35 3564.04,2714.01 3567.5,2715.5 Z"/></g>
<g><path style="opacity:1" fill="#ded4c2" d="M 3620.5,2715.5 C 3620.5,2722.5 3620.5,2729.5 3620.5,2736.5C 3618.74,2737.46 3616.74,2737.79 3614.5,2737.5C 3613.54,2730.25 3613.2,2722.92 3613.5,2715.5C 3615.83,2714.17 3618.17,2714.17 3620.5,2715.5 Z"/></g>
<g><path style="opacity:1" fill="#c0ab94" d="M 3503.5,2715.5 C 3503.5,2721.83 3503.5,2728.17 3503.5,2734.5C 3499.73,2732.29 3498.06,2728.95 3498.5,2724.5C 3497.88,2720.06 3499.55,2717.06 3503.5,2715.5 Z"/></g>
<g><path style="opacity:1" fill="#c0aa94" d="M 3557.5,2716.5 C 3557.29,2723.21 3557.62,2729.88 3558.5,2736.5C 3552.43,2732.16 3550.93,2726.5 3554,2719.5C 3555.04,2718.29 3556.21,2717.29 3557.5,2716.5 Z"/></g>
<g><path style="opacity:1" fill="#cdbba6" d="M 3620.5,2715.5 C 3628.42,2719.43 3630.25,2725.43 3626,2733.5C 3624.51,2735.16 3622.68,2736.16 3620.5,2736.5C 3620.5,2729.5 3620.5,2722.5 3620.5,2715.5 Z"/></g>
<g><path style="opacity:1" fill="#cfbda7" d="M 3567.5,2715.5 C 3575.76,2719.34 3577.59,2725.34 3573,2733.5C 3571.51,2735.16 3569.68,2736.16 3567.5,2736.5C 3567.5,2729.5 3567.5,2722.5 3567.5,2715.5 Z"/></g>
<g><path style="opacity:1" fill="#cbb9a5" d="M 3613.5,2715.5 C 3613.2,2722.92 3613.54,2730.25 3614.5,2737.5C 3605.73,2734.29 3603.23,2728.29 3607,2719.5C 3608.57,2717.08 3610.74,2715.74 3613.5,2715.5 Z"/></g>
<g><path style="opacity:1" fill="#dfd4c3" d="M 3452.5,2766.5 C 3455.17,2766.5 3457.83,2766.5 3460.5,2766.5C 3460.5,2773.83 3460.5,2781.17 3460.5,2788.5C 3456.51,2788.99 3452.85,2788.32 3449.5,2786.5C 3450.09,2779.8 3451.09,2773.13 3452.5,2766.5 Z"/></g>
<g><path style="opacity:1" fill="#dacdbb" d="M 3715.5,2787.5 C 3715.5,2781.5 3715.5,2775.5 3715.5,2769.5C 3725.59,2765.05 3731.59,2768.21 3733.5,2779C 3732.48,2788.02 3727.48,2791.68 3718.5,2790C 3717.06,2789.62 3716.06,2788.79 3715.5,2787.5 Z"/></g>
<g><path style="opacity:1" fill="#dacdbb" d="M 3662.5,2787.5 C 3662.5,2781.83 3662.5,2776.17 3662.5,2770.5C 3667.19,2766.69 3672.19,2766.52 3677.5,2770C 3680.42,2774.37 3681.25,2779.2 3680,2784.5C 3674.92,2791.11 3669.08,2792.11 3662.5,2787.5 Z"/></g>
<g><path style="opacity:1" fill="#b8a38d" d="M 3662.5,2770.5 C 3662.5,2776.17 3662.5,2781.83 3662.5,2787.5C 3657,2783.12 3656.16,2777.78 3660,2771.5C 3660.67,2770.75 3661.5,2770.41 3662.5,2770.5 Z"/></g>
<g><path style="opacity:1" fill="#bfab95" d="M 3452.5,2766.5 C 3451.09,2773.13 3450.09,2779.8 3449.5,2786.5C 3447.83,2785.66 3446.66,2784.32 3446,2782.5C 3443.73,2775.17 3445.9,2769.84 3452.5,2766.5 Z"/></g>
<g><path style="opacity:1" fill="#c8b6a2" d="M 3508.5,2767.5 C 3507.54,2774.75 3507.2,2782.08 3507.5,2789.5C 3502.02,2788.18 3499.35,2784.68 3499.5,2779C 3499.7,2772.97 3502.7,2769.14 3508.5,2767.5 Z"/></g>
<g><path style="opacity:1" fill="#dfd5c4" d="M 3508.5,2767.5 C 3509.83,2767.5 3511.17,2767.5 3512.5,2767.5C 3514.41,2774.56 3515.08,2781.89 3514.5,2789.5C 3512.17,2790.83 3509.83,2790.83 3507.5,2789.5C 3507.2,2782.08 3507.54,2774.75 3508.5,2767.5 Z"/></g>
<g><path style="opacity:1" fill="#e2d8c6" d="M 3562.5,2767.5 C 3565.23,2767.17 3567.56,2767.84 3569.5,2769.5C 3569.5,2775.83 3569.5,2782.17 3569.5,2788.5C 3569.16,2789.34 3568.49,2789.67 3567.5,2789.5C 3565.83,2789.5 3564.17,2789.5 3562.5,2789.5C 3562.5,2782.17 3562.5,2774.83 3562.5,2767.5 Z"/></g>
<g><path style="opacity:1" fill="#dcd1bf" d="M 3621.5,2768.5 C 3621.5,2775.5 3621.5,2782.5 3621.5,2789.5C 3618.5,2790.83 3615.5,2790.83 3612.5,2789.5C 3611.54,2782.59 3611.2,2775.59 3611.5,2768.5C 3614.83,2767.17 3618.17,2767.17 3621.5,2768.5 Z"/></g>
<g><path style="opacity:1" fill="#ccbaa3" d="M 3621.5,2768.5 C 3627.79,2772.2 3629.62,2777.53 3627,2784.5C 3625.62,2786.71 3623.79,2788.38 3621.5,2789.5C 3621.5,2782.5 3621.5,2775.5 3621.5,2768.5 Z"/></g>
<g><path style="opacity:1" fill="#d0bea9" d="M 3512.5,2767.5 C 3522.71,2770.61 3525.21,2776.94 3520,2786.5C 3518.51,2788.16 3516.68,2789.16 3514.5,2789.5C 3515.08,2781.89 3514.41,2774.56 3512.5,2767.5 Z"/></g>
<g><path style="opacity:1" fill="#b8a48e" d="M 3715.5,2769.5 C 3715.5,2775.5 3715.5,2781.5 3715.5,2787.5C 3714.5,2787.59 3713.67,2787.25 3713,2786.5C 3709.14,2780.04 3709.97,2774.38 3715.5,2769.5 Z"/></g>
<g><path style="opacity:1" fill="#cdbba5" d="M 3569.5,2769.5 C 3573.35,2771.34 3575.35,2774.51 3575.5,2779C 3575.35,2783.49 3573.35,2786.66 3569.5,2788.5C 3569.5,2782.17 3569.5,2775.83 3569.5,2769.5 Z"/></g>
<g><path style="opacity:1" fill="#d1c0aa" d="M 3460.5,2766.5 C 3467.87,2770.09 3470.03,2775.76 3467,2783.5C 3465.24,2785.77 3463.08,2787.43 3460.5,2788.5C 3460.5,2781.17 3460.5,2773.83 3460.5,2766.5 Z"/></g>
<g><path style="opacity:1" fill="#c4b19c" d="M 3611.5,2768.5 C 3611.2,2775.59 3611.54,2782.59 3612.5,2789.5C 3605.89,2786.2 3603.73,2780.86 3606,2773.5C 3607.38,2771.29 3609.21,2769.62 3611.5,2768.5 Z"/></g>
<g><path style="opacity:1" fill="#cfbfac" d="M 3562.5,2767.5 C 3562.5,2774.83 3562.5,2782.17 3562.5,2789.5C 3564.17,2789.5 3565.83,2789.5 3567.5,2789.5C 3561.15,2791.54 3556.31,2789.54 3553,2783.5C 3550.82,2774.85 3553.99,2769.51 3562.5,2767.5 Z"/></g>
</svg>
